<svg xmlns="http://www.w3.org/2000/svg" viewBox="0 0 1079 639">
<path id="eeg-tall" fill-rule="evenodd" d="
    M 1046.82888793945,526.693796575069
    C 1048.16094732285,527.439928114414 1049.70356881619,528.053058564663 1051.45572340488,528.533187925816
    C 1053.20787799358,529.014459908009 1055.01945817471,529.447246670723 1056.88924199343,529.831586301327
    C 1059.45920592546,530.408648014069 1061.88909524679,531.046573340893 1064.17903858423,531.743115127087
    C 1066.46891760826,532.440799534321 1068.58289945126,533.486716747284 1070.52329939604,534.880942940712
    C 1072.46254169941,536.276235580444 1074.02760857344,538.163007616997 1075.21959334612,540.543391942978
    C 1076.4115781188,542.923776268959 1077.00757050514,546.014261484146 1077.00757050514,549.81252425909
    C 1077.00757050514,553.27493262291 1076.33761769533,556.340584874153 1075.00002735853,559.009519100189
    C 1073.66121506691,561.678453326225 1071.77355211973,563.914600789547 1069.33575224876,565.717923402786
    C 1066.89801669121,567.521246016026 1063.98185366392,568.89178186655 1060.58848512173,569.829530954361
    C 1057.19395893812,570.767241954803 1053.46558183432,571.236135542393 1049.40335381031,571.236135542393
    C 1046.91738319397,571.236135542393 1044.65888911486,571.103134453297 1042.62774294615,570.839379429817
    C 1040.59556776285,570.574519872665 1038.8030243516,570.2375228405 1037.25030565262,569.829530954361
    C 1035.69642931223,569.421500980854 1034.37002950907,568.999988079071 1033.27104192972,568.567201316357
    C 1032.17083239555,568.134376466274 1031.2634344697,567.726384580135 1030.54646855593,567.340902328491
    C 1030.54646855593,567.340902328491 1030.54646855593,557.963601887226 1030.54646855593,557.963601887226
    C 1033.36172384024,559.11772531271 1036.15356904268,560.031784057617 1038.92296886444,560.704673588276
    C 1041.69230437279,561.378667652607 1044.74294674397,561.714522063732 1048.07463872433,561.714522063732
    C 1050.70293492079,561.714522063732 1053.07236963511,561.474457383156 1055.18410050869,560.993185400963
    C 1057.29589569569,560.51305603981 1059.11410015821,559.802993237972 1060.64000016451,558.865244150162
    C 1062.16583585739,557.927533149719 1063.33878386021,556.749719381332 1064.15993750095,555.330736398697
    C 1064.98115545511,553.912857949734 1065.39231109619,552.265046060085 1065.39231109619,550.389585971832
    C 1065.39231109619,548.466783285141 1065.01697802544,546.879835009575 1064.26644051075,545.628779232502
    C 1063.51583868265,544.378866076469 1062.50643968582,543.34532725811 1061.23933684826,542.527058243752
    C 1059.97229832411,541.709931850433 1058.50582391024,541.037042319775 1056.83991360664,540.507323205471
    C 1055.17406761646,539.97870862484 1053.42635065317,539.497474730015 1051.59689134359,539.064649879932
    C 1049.20391792059,538.536073386669 1046.77512192726,537.910526454449 1044.31159669161,537.189189791679
    C 1041.84800714254,536.46785312891 1039.6074565053,535.458004653454 1037.58975183964,534.159606277943
    C 1035.57211148739,532.861207902431 1033.94208806753,531.093915939331 1032.69852393866,528.857806563377
    C 1031.45502412319,526.621659100056 1030.83324205875,523.74872893095 1030.83324205875,520.23787343502
    C 1030.83324205875,516.631190121174 1031.47849851847,513.50577878952 1032.7690757513,510.860534906387
    C 1034.05971729755,508.216395556927 1035.80402565002,506.027590692043 1038.00315845013,504.296405553818
    C 1040.20119792223,502.565182328224 1042.75887799263,501.266783952713 1045.6749767065,500.401210427284
    C 1048.59004640579,499.535598814487 1051.67310273647,499.102773964405 1054.92421001196,499.102773964405
    C 1058.69966453314,499.102773964405 1062.20165842772,499.463461339474 1065.42813366652,500.184798002243
    C 1068.65460890532,500.906134665012 1071.58196246624,501.82019340992 1074.2113519907,502.925869703293
    C 1074.2113519907,502.925869703293 1074.2113519907,512.447445094585 1074.2113519907,512.447445094585
    C 1071.41281819344,511.34180688858 1068.57846182585,510.440126538277 1065.71046954393,509.742442131042
    C 1062.84247726202,509.045938432217 1059.89274263382,508.672872662544 1056.86120134592,508.624387443066
    C 1054.2957393527,508.624387443066 1052.10329514742,508.889247000217 1050.28393304348,509.417861580849
    C 1048.46450662613,509.947580695152 1046.97230684757,510.680191218853 1045.80604743958,511.617940306664
    C 1044.63985234499,512.555651307106 1043.78840708733,513.662470221519 1043.25286930799,514.936073720455
    C 1042.71630251408,516.210781753063 1042.4485014677,517.617386341095 1042.4485014677,519.155849397182
    C 1042.4485014677,521.031309485435 1042.84512227774,522.570915162563 1043.63939291239,523.772381186485
    C 1044.43366354704,524.974989831448 1045.49689286947,525.948807656765 1046.82888793945,526.693796575069
    Z
    M 968.526730358601,537.477739691734
    C 968.526730358601,541.854206800461 969.183241665363,545.56905823946 970.498450934887,548.6223320961
    C 971.812566876411,551.676710486412 973.605045974255,554.15292263031 975.875888228416,556.052073061466
    C 978.145637154579,557.952328026295 980.810849249363,559.334137737751 983.870366871357,560.19971126318
    C 986.928791165352,561.065322875977 990.226975858212,561.498109638691 993.764920949936,561.498109638691
    C 997.445127308369,561.498109638691 1000.80260896683,561.198323965073 1003.83865219355,560.596467375755
    C 1006.87353777885,559.99571532011 1009.89723283052,559.142520189285 1012.90864402056,558.03573936224
    C 1012.90864402056,558.03573936224 1012.90864402056,567.340902328491 1012.90864402056,567.340902328491
    C 1010.47084414959,568.543510973454 1007.45949727297,569.492533922195 1003.87447476387,570.190180242062
    C 1000.28951656818,570.886722028255 996.441323578358,571.236135542393 992.330924808979,571.236135542393
    C 987.455325067043,571.236135542393 982.877817988396,570.610588610172 978.600461602211,569.360637366772
    C 974.322076201439,568.110724210739 970.618331134319,566.090989172459 967.490448355675,563.301470339298
    C 964.36256557703,560.51305603981 961.912481844425,556.870303988457 960.141290485859,552.373252272606
    C 958.370099127293,547.877305090427 957.485017955303,542.454920768738 957.485017955303,536.107203841209
    C 957.485017955303,529.856381177902 958.343216121197,524.433996856213 960.05948382616,519.841117322445
    C 961.775815844536,515.249380409718 964.064601540565,511.413944363594 966.925840914249,508.335875630379
    C 969.787080287933,505.258911430836 973.076261103153,502.950664579868 976.795698642731,501.41105890274
    C 980.515071868896,499.872595846653 984.401402711868,499.102773964405 988.454691171646,499.102773964405
    C 992.268154919147,499.102773964405 995.832983016968,499.740737378597 999.146860182285,501.014340877533
    C 1002.46067303419,502.289048910141 1005.33310294151,504.296405553818 1007.76530754566,507.037477254868
    C 1010.1963545084,509.778510868549 1012.11546671391,513.313056707382 1013.52257984877,517.641076683998
    C 1014.92962867022,521.969058573246 1015.63321739435,527.162652075291 1015.63321739435,533.221857190132
    C 1015.63321739435,533.798918902874 1015.63321739435,534.292569279671 1015.63321739435,534.700599253178
    C 1015.63321739435,535.109733760357 1015.60852104425,536.035066366196 1015.56150794029,537.477739691734
    C 1015.56150794029,537.477739691734 968.526730358601,537.477739691734 968.526730358601,537.477739691734
    Z
    M 1002.89311641455,520.346041560173
    C 1002.19177865982,518.014142453671 1001.16334289312,515.981990933418 999.807809114456,514.250805795193
    C 998.452211022377,512.519582569599 996.782956421375,511.161463201046 994.798951983452,510.175266981125
    C 992.813725590706,509.190175294876 990.514907002449,508.696524918079 987.902367591858,508.696524918079
    C 985.336841285229,508.696524918079 982.953965067863,509.201449155808 980.751487970352,510.211335718632
    C 978.548946559429,511.221184194088 976.625396728516,512.591720044613 974.9807741642,514.322943270206
    C 973.335058271885,516.054128408432 972.004156529903,518.086241841316 970.988004624844,520.418179035187
    C 969.970823705196,522.751258850098 969.342288732529,525.239849388599 969.100341677666,527.88398873806
    C 969.100341677666,527.88398873806 1003.94618421793,527.88398873806 1003.94618421793,527.88398873806
    C 1003.94618421793,525.191402256489 1003.59445416927,522.679121375084 1002.89311641455,520.346041560173
    Z
    M 928.088579416275,500.906134665012
    C 928.088579416275,500.906134665012 939.20193696022,500.906134665012 939.20193696022,500.906134665012
    C 939.20193696022,500.906134665012 939.20193696022,569.432774841785 939.20193696022,569.432774841785
    C 939.20193696022,569.432774841785 928.088579416275,569.432774841785 928.088579416275,569.432774841785
    C 928.088579416275,569.432774841785 928.088579416275,500.906134665012 928.088579416275,500.906134665012
    Z
    M 927.801741600037,472.485607266426
    C 927.801741600037,472.485607266426 938.915163457394,472.485607266426 938.915163457394,472.485607266426
    C 938.915163457394,472.485607266426 938.915163457394,484.96466678381 938.915163457394,484.96466678381
    C 938.915163457394,484.96466678381 927.801741600037,484.96466678381 927.801741600037,484.96466678381
    C 927.801741600037,484.96466678381 927.801741600037,472.485607266426 927.801741600037,472.485607266426
    Z
    M 902.993936359882,570.045905292034
    C 901.416521310806,570.406592667103 899.742829084396,570.69510447979 897.974982023239,570.911516904831
    C 896.205977320671,571.127929329872 894.437036931515,571.236135542393 892.669189870358,571.236135542393
    C 888.08042794466,571.236135542393 883.742616951466,570.538451135159 879.655756890774,569.144263029099
    C 875.568896830082,567.75003683567 871.995129168034,565.609717190266 868.936704874039,562.724370539188
    C 865.877187252045,559.839061975479 863.462926089764,556.185036063194 861.695079028606,551.760121822357
    C 859.92613863945,547.336312115192 859.042215108871,542.094271481037 859.042215108871,536.035066366196
    C 859.042215108871,531.515466928482 859.508294403553,527.451201975346 860.440388679504,523.844518661499
    C 861.372418642044,520.23787343502 862.650712013245,517.063976883888 864.276297807693,514.322943270206
    C 865.900725960732,511.581871569157 867.800737082958,509.249934375286 869.976395487785,507.325989067554
    C 872.150896251202,505.403186380863 874.468751609325,503.827511966228 876.931183516979,502.601251065731
    C 879.392522096634,501.374990165234 881.937853991985,500.485726296902 884.567179203033,499.932316839695
    C 887.195411086082,499.380050003529 889.753026843071,499.102773964405 892.238997459412,499.102773964405
    C 895.537182152271,499.102773964405 898.691947937012,499.452187478542 901.703294813633,500.148729264736
    C 904.714706003666,500.84641367197 907.295860469341,501.82019340992 909.446822524071,503.07014465332
    C 909.446822524071,503.07014465332 909.446822524071,512.37534570694 909.446822524071,512.37534570694
    C 906.435475647449,511.221184194088 903.662731528282,510.355610668659 901.12974780798,509.778510868549
    C 898.595606446266,509.201449155808 896.014451980591,508.912937343121 893.386220097542,508.912937343121
    C 890.613475978374,508.912937343121 887.865363895893,509.37051898241 885.140790522099,510.283473193645
    C 882.416217148304,511.197531938553 879.978417277336,512.699926257133 877.827455222607,514.791798770428
    C 875.676493167877,516.883671283722 873.943375349045,519.649537861347 872.62925940752,523.087113261223
    C 871.313985824585,526.525869369507 870.657538831234,530.794130265713 870.657538831234,535.890791416168
    C 870.657538831234,539.594368994236 871.147092521191,543.008330225945 872.127357542515,546.133741557598
    C 873.106464922428,549.260257422924 874.565157413483,551.965260386467 876.500991106033,554.248712360859
    C 878.436889111996,556.533306956291 880.862340807915,558.312977313995 883.778503835201,559.586580812931
    C 886.693509221077,560.861326932907 890.063403367996,561.498109638691 893.888121962547,561.498109638691
    C 896.659708440304,561.498109638691 899.455991268158,561.198323965073 902.276906132698,560.596467375755
    C 905.096727669239,559.99571532011 907.84483975172,559.142520189285 910.522335708141,558.03573936224
    C 910.522335708141,558.03573936224 910.522335708141,567.340902328491 910.522335708141,567.340902328491
    C 909.708963990211,567.822174310684 908.645863294601,568.303446292877 907.331683039665,568.78357565403
    C 906.016473770142,569.264847636223 904.571287095547,569.685256004334 902.993936359882,570.045905292034
    Z
    M 830.362742483616,525.359329462051
    C 830.362742483616,519.444399297237 829.226774692535,515.188516795635 826.957025766373,512.591720044613
    C 824.686183512211,509.994923293591 821.375650644302,508.696524918079 817.02664911747,508.696524918079
    C 813.201930522919,508.696524918079 809.498249769211,509.767275094986 805.913291573524,511.90645211935
    C 802.328333377838,514.046771764755 799.245212733746,516.991877496243 796.66405826807,520.742797672749
    C 796.66405826807,520.742797672749 796.66405826807,569.432774841785 796.66405826807,569.432774841785
    C 796.66405826807,569.432774841785 785.550700724125,569.432774841785 785.550700724125,569.432774841785
    C 785.550700724125,569.432774841785 785.550700724125,500.906134665012 785.550700724125,500.906134665012
    C 785.550700724125,500.906134665012 794.154613256454,500.906134665012 794.154613256454,500.906134665012
    C 794.154613256454,500.906134665012 796.305575311184,510.427710056305 796.305575311184,510.427710056305
    C 796.305575311184,510.427710056305 796.520639359951,510.427710056305 796.520639359951,510.427710056305
    C 797.763110160828,508.840799868107 799.137680709362,507.362057805061 800.643386304379,505.991521954536
    C 802.149091899395,504.620986104012 803.833974659443,503.41952008009 805.698163211346,502.384876728058
    C 807.562351763248,501.351337909698 809.605781793594,500.545447289944 811.828453302383,499.968385577202
    C 814.051124811172,499.39132386446 816.476576507092,499.102773964405 819.105966031551,499.102773964405
    C 822.212561070919,499.102773964405 825.128659784794,499.535598814487 827.853297472,500.401210427284
    C 830.577870845795,501.266783952713 832.943896949291,502.662114679813 834.951504409313,504.584917366505
    C 836.959047555923,506.508862674236 838.547653138638,509.021143555641 839.719507813454,512.122864544392
    C 840.890204846859,515.224585533142 841.476164340973,519.036407411098 841.476164340973,523.556006848812
    C 841.476164340973,523.556006848812 841.476164340973,569.432774841785 841.476164340973,569.432774841785
    C 841.476164340973,569.432774841785 830.362742483616,569.432774841785 830.362742483616,569.432774841785
    C 830.362742483616,569.432774841785 830.362742483616,525.359329462051 830.362742483616,525.359329462051
    Z
    M 767.458437621593,230.514882445335
    C 767.458437621593,230.514882445335 741.560970246792,230.42533904314 741.560970246792,230.42533904314
    C 738.563708007336,350.727871119976 642.105424106121,447.311075806618 523.552138984203,447.311075806618
    C 403.109454452991,447.311075806618 305.471212387085,347.624740898609 305.471212387085,224.65552175045
    C 305.471212387085,101.686302602291 403.109454452991,1.99996769428253 523.552138984203,1.99996769428253
    C 630.27760887146,1.99996769428253 713.358252942562,80.2727082967758 732.205233931541,183.659421443939
    C 732.248066663742,183.89442050457 732.302540123463,184.130562186241 732.348202645779,184.365827858448
    C 732.348202645779,184.365827858448 706.117784738541,185.520484507084 706.117784738541,185.520484507084
    C 688.440407454968,99.1285834908485 613.423571884632,34.2341070771217 523.553811132908,34.2341070771217
    C 420.544627428055,34.2341070771217 337.039064645767,119.487881362438 337.039064645767,224.653693556786
    C 337.039064645767,329.819467663765 420.544627428055,415.073241949081 523.553811132908,415.073241949081
    C 624.707102715969,415.073241949081 707.045377075672,332.861772358418 709.979805111885,230.316142559052
    C 709.979805111885,230.316142559052 553.581099927425,229.775378108025 553.581099927425,229.775378108025
    C 553.619430720806,239.937849640846 554.624906599522,249.106240868568 556.612898468971,257.267792522907
    C 558.639992892742,265.590072870255 564.044699072838,274.974190950394 569.463940083981,280.319410264492
    C 575.790193140507,286.566652715206 580.682385742664,290.229095935822 587.999965727329,293.999973893166
    C 596.548761665821,298.409272313118 604.210997223854,300.827020347118 615.148393273354,301.34203773737
    C 623.789929151535,301.748925089836 631.516413807869,301.38378149271 638.334149956703,300.246873557568
    C 645.151886105537,299.109927535057 651.064089417458,297.757902145386 656.074039876461,296.187636137009
    C 661.083926022053,294.620607554913 665.207509040833,293.181095480919 668.447683036327,291.875727117062
    C 671.687857031822,290.570320665836 674.117296159267,289.955742895603 675.739151775837,290.032108068466
    C 676.683915793896,290.076594114304 677.513751745224,290.359773695469 678.235155284405,290.878637909889
    C 678.95636588335,291.400739550591 679.496662855148,292.155174136162 679.859197556973,293.142017841339
    C 680.218452274799,294.131984710693 680.462907552719,295.497302591801 680.586260676384,297.237704873085
    C 680.709485173225,298.981306493282 680.718038856983,301.09705978632 680.605361759663,303.591096818447
    C 680.523940980434,305.393429160118 680.384316563606,306.948917269707 680.192598283291,308.257903933525
    C 679.997600018978,309.57001376152 679.777583837509,310.737734377384 679.529141128063,311.767426371574
    C 679.280634105206,312.797118365765 678.901377916336,313.716509342194 678.39458823204,314.525751650333
    C 677.884647190571,315.334841609001 677.243892669678,316.105234801769 676.47264623642,316.830456376076
    C 675.698119819164,317.558763027191 673.459369957447,318.70302182436 669.753245294094,320.26308041811
    C 666.046992003918,321.826376438141 661.265418469906,323.300014793873 655.41457015276,324.690736949444
    C 649.560570478439,326.081306755543 642.807533621788,327.253826379776 635.158289372921,328.214923024178
    C 627.506022393703,329.172591805458 619.379508316517,329.450591504574 610.782027125359,329.04576086998
    C 595.86716812849,328.343467891216 586.432454943657,325.632599473 575.202883064747,321.334897041321
    C 563.970159828663,317.03723269701 552.176623642445,310.540479898453 543.64274841547,302.015193879604
    C 535.108937501907,293.493145287037 528.669943034649,282.802973270416 524.329302251339,269.944601655006
    C 520.37885093689,258.254483878613 518.247826039791,244.811356902123 517.890372097492,229.651975035667
    C 517.890372097492,229.651975035667 381.404642701149,229.180034458637 381.404642701149,229.180034458637
    C 381.404642701149,239.582913458347 382.416614234447,248.945474088192 384.443708658218,257.267792522907
    C 386.470867395401,265.590072870255 391.644881367683,274.376181185246 396.70075160265,280.066319704056
    C 402.50407230854,286.597655832767 410.356739878654,292.779388010502 417.999938666821,295.999979674816
    C 425.57039898634,299.189911007881 432.041871726513,300.827020347118 442.979267776012,301.34203773737
    C 451.620803654194,301.748925089836 459.347288310528,301.38378149271 466.165024459362,300.246873557568
    C 472.982696294785,299.109927535057 478.894899606705,297.757902145386 483.90491437912,296.187636137009
    C 488.914800524712,294.620607554913 493.038383543491,293.181095480919 496.278493225574,291.875727117062
    C 499.518667221069,290.570320665836 501.948106348515,289.955742895603 503.570026278496,290.032108068466
    C 504.514790296555,290.076594114304 505.344626247883,290.359773695469 506.065965473652,290.878637909889
    C 506.787240386009,291.400739550591 507.327537357807,292.155174136162 507.690072059631,293.142017841339
    C 508.049262464046,294.131984710693 508.293717741966,295.497302591801 508.417135179043,297.237704873085
    C 508.540359675884,298.981306493282 508.548913359642,301.09705978632 508.436236262321,303.591096818447
    C 508.354815483093,305.393429160118 508.215126752853,306.948917269707 508.02347278595,308.257903933525
    C 507.828474521637,309.57001376152 507.608458340168,310.737734377384 507.35995131731,311.767426371574
    C 507.111508607864,312.797118365765 506.732252418995,313.716509342194 506.225462734699,314.525751650333
    C 505.71552169323,315.334841609001 505.074767172337,316.105234801769 504.303520739079,316.830456376076
    C 503.528994321823,317.558763027191 501.290244460106,318.70302182436 497.584119796753,320.26308041811
    C 493.877802193165,321.826376438141 489.096292972565,323.300014793873 483.245444655418,324.690736949444
    C 477.391444981098,326.081306755543 470.638408124447,327.253826379776 462.989099562168,328.214923024178
    C 455.336832582951,329.172591805458 447.210382819176,329.450591504574 438.612901628017,329.04576086998
    C 423.698042631149,328.343467891216 414.263329446316,325.632599473 403.033757567406,321.334897041321
    C 391.801034331322,317.03723269701 380.007433831692,310.540479898453 371.473622918129,302.015193879604
    C 362.939747691154,293.493145287037 356.500817537308,282.802973270416 352.160176753998,269.944601655006
    C 347.816063046455,257.089505553246 345.647479116917,242.138309240341 345.647479116917,225.087699115276
    C 345.647479116917,208.878819823265 347.893239140511,194.310820519924 352.384759187698,181.383663117886
    C 356.876214921474,168.459781229496 365.676926493645,156.047869741917 373.277807056904,147.101413607597
    C 380.875600576401,138.154957473278 390.055954217911,131.289061903954 400.818932294846,126.503726899624
    C 411.578759014606,121.718429982662 423.618551254272,119.325743436813 436.93515765667,119.325743436813
    C 451.191190063953,119.325743436813 463.331890046597,121.68590337038 473.353977620602,126.399710297585
    C 483.372978150845,131.11675465107 491.613905787468,137.462491035461 498.070393502712,145.436957538128
    C 504.526945531368,153.414661467075 509.268451809883,162.77722209692 512.294912338257,173.524715602398
    C 514.991509377956,183.103307783604 516.486731886864,193.25995194912 516.780708491802,203.992400944233
    C 516.782702207565,204.065719127655 517.635498046875,204.129934430122 519.210790753365,204.186341822147
    C 520.322833955288,196.096622943878 522.087079465389,188.483491301537 524.55388468504,181.383663117886
    C 529.045404732227,168.459781229496 537.846051990986,156.047869741917 545.446996867657,147.101413607597
    C 553.044726073742,138.154957473278 562.225144028664,131.289061903954 572.988122105598,126.503726899624
    C 583.747948825359,121.718429982662 595.787741065025,119.325743436813 609.104283154011,119.325743436813
    C 623.360379874706,119.325743436813 635.501015543938,121.68590337038 645.523167431355,126.399710297585
    C 655.542103648186,131.11675465107 663.783031284809,137.462491035461 670.239519000053,145.436957538128
    C 676.696071028709,153.414661467075 681.437577307224,162.77722209692 684.46410214901,173.524715602398
    C 687.188353955746,183.201877892017 688.675087094307,193.474536180496 688.947132825851,204.329397976398
    C 721.965445458889,204.236617147923 751.278855383396,204.147759318352 767.458437621593,204.147759318352
    C 767.581919372082,204.147759318352 766.631688714027,203.303705155849 770.327909111977,207.077439665794
    C 770.327909111977,207.077439665794 770.327909111977,227.585202097893 770.327909111977,227.585202097893
    C 767.537993311882,230.433642089367 767.769714534283,230.832721531391 767.458437621593,230.514882445335
    Z
    M 471.667358398438,161.561397135258
    C 463.480068147182,151.29829877615 451.333065450192,146.165149927139 435.229630291462,146.165149927139
    C 426.972945868969,146.165149927139 419.731384336948,147.761353433132 413.508161365986,150.950484931469
    C 407.281787037849,154.142853856087 401.490878820419,157.862580478191 397.294750273228,163.132272541523
    C 393.098686039448,168.405240118504 387.561622858047,175.052628457546 385.260231733322,182.055029153824
    C 382.958840608597,189.060743451118 381.675723731518,196.378507554531 381.404642701149,204.005084037781
    C 381.404642701149,204.005084037781 483.341464579105,204.005084037781 483.341464579105,204.005084037781
    C 483.744966924191,185.975628554821 479.851497292519,171.827732920647 471.667358398438,161.561397135258
    Z
    M 643.836483895779,161.561397135258
    C 635.649193644524,151.29829877615 623.502255260944,146.165149927139 607.398755788803,146.165149927139
    C 599.14207136631,146.165149927139 591.900574147701,147.761353433132 585.677351176739,150.950484931469
    C 579.450912535191,154.142853856087 573.660068631172,157.862580478191 569.463940083981,163.132272541523
    C 565.267811536789,168.405240118504 559.7308126688,175.052628457546 557.429421544075,182.055029153824
    C 555.127966105938,189.060743451118 553.844913542271,196.378507554531 553.57376819849,204.005084037781
    C 553.57376819849,204.005084037781 655.510590076447,204.005084037781 655.510590076447,204.005084037781
    C 655.914156734943,185.975628554821 652.020687103271,171.827732920647 643.836483895779,161.561397135258
    Z
    M 307.750351071358,502.9619384408
    C 309.2671828866,504.04392439127 310.47370249033,505.114674568176 311.369974195957,506.171865642071
    C 312.266310214996,507.230199337006 312.874908030033,508.072120606899 313.197053909302,508.696524918079
    C 313.197053909302,508.696524918079 313.472829818726,508.696524918079 313.472829818726,508.696524918079
    C 313.472829818726,508.696524918079 315.679101407528,500.906134665012 315.679101407528,500.906134665012
    C 315.679101407528,500.906134665012 323.745675384998,500.906134665012 323.745675384998,500.906134665012
    C 323.745675384998,500.906134665012 323.745675384998,573.472244918346 323.745675384998,573.472244918346
    C 323.745675384998,578.761666238308 322.918347656727,583.365781545639 321.263627886772,587.285771548748
    C 319.608972430229,591.204657018185 317.287451207638,594.463069438934 314.300157546997,597.059866189957
    C 311.311834871769,599.656662940979 307.71587908268,601.591844022274 303.510232150555,602.86659014225
    C 299.304520905018,604.140193641186 294.650738120079,604.77811896801 289.548755168915,604.77811896801
    C 285.227858603001,604.77811896801 281.366931557655,604.381362855434 277.965974032879,603.587926805019
    C 274.563923180103,602.794452667236 271.898775398731,601.844325184822 269.968279719353,600.738648891449
    C 269.968279719353,600.738648891449 269.968279719353,591.289172887802 269.968279719353,591.289172887802
    C 271.530323863029,591.962062418461 273.047155678272,592.526707649231 274.518710851669,592.984327375889
    C 275.989172697067,593.440804481506 277.505940198898,593.825106024742 279.069077670574,594.138450801373
    C 280.631121814251,594.450652956963 282.228731274605,594.679443776608 283.860812723637,594.823718726635
    C 285.491800844669,594.967993676662 287.296242237091,595.040131151676 289.272979259491,595.040131151676
    C 296.948527693748,595.040131151676 302.831532716751,593.164632976055 306.923023343086,589.413712799549
    C 311.013420641422,585.662792623043 313.05916595459,579.939441919327 313.05916595459,572.245984017849
    C 313.05916595459,572.245984017849 313.05916595459,563.085057914257 313.05916595459,563.085057914257
    C 313.05916595459,563.085057914257 312.852334022522,563.085057914257 312.852334022522,563.085057914257
    C 310.508174479008,565.778787016869 307.784823060036,567.80979591608 304.682279765606,569.180331766605
    C 301.579736471176,570.55086761713 298.029057323933,571.236135542393 294.030242323875,571.236135542393
    C 292.191328942776,571.236135542393 290.214527606964,571.019723117352 288.10093164444,570.586936354637
    C 285.986242353916,570.154111504555 283.871553063393,569.421500980854 281.757957100868,568.386857628822
    C 279.643267810345,567.353318810463 277.621254146099,565.982782959938 275.690758466721,564.275250077248
    C 273.760262787342,562.568859815598 272.059301674366,560.428502082825 270.588775515556,557.855395674706
    C 269.117284655571,555.283393800259 267.934432387352,552.24139380455 267.038096368313,548.73053830862
    C 266.141824662685,545.220787346363 265.693688809872,541.156522393227 265.693688809872,536.539990603924
    C 265.693688809872,530.144931077957 266.521016538143,524.601924061775 268.175736308098,519.913254797459
    C 269.830391764641,515.224585533142 272.012996017933,511.34180688858 274.725542783737,508.263738155365
    C 277.436996221542,505.18681204319 280.539539515972,502.889800965786 284.033172667027,501.374990165234
    C 287.52564817667,499.860179364681 291.134530961514,499.102773964405 294.857570052147,499.102773964405
    C 297.706975758076,499.151259183884 300.18895894289,499.535598814487 302.303648233414,500.256935477257
    C 304.41730850935,500.978272140026 306.233583569527,501.879914402962 307.750351071358,502.9619384408
    Z
    M 302.096816301346,509.670342743397
    C 300.304272890091,509.021143555641 298.350109875202,508.696524918079 296.236513912678,508.696524918079
    C 293.065026640892,508.696524918079 290.272731244564,509.358140587807 287.859627723694,510.680191218853
    C 285.446524202824,512.00338447094 283.423417210579,513.842775821686 281.792429089546,516.198403358459
    C 280.160347640514,518.555135428905 278.931189715862,521.380722999573 278.103861987591,524.674061536789
    C 277.276534259319,527.968504607677 276.862870395184,531.611256659031 276.862870395184,535.602241516113
    C 276.862870395184,540.988595187664 277.483366191387,545.388714551926 278.724357783794,548.802675783634
    C 279.965349376202,552.217703461647 281.539291501045,554.874259293079 283.447148859501,556.773371636868
    C 285.353912889957,558.673664689064 287.434065878391,559.972063064575 289.686643123627,560.668604850769
    C 291.938191354275,561.366251170635 294.075454652309,561.714522063732 296.098561644554,561.714522063732
    C 299.408001184464,561.714522063732 302.510480165482,561.017980277538 305.406191527843,559.622649550438
    C 308.301902890205,558.228461444378 310.852894365788,556.329311013222 313.05916595459,553.924131810665
    C 313.05916595459,553.924131810665 313.05916595459,518.073863446712 313.05916595459,518.073863446712
    C 312.461244165897,517.208251833916 311.633916437626,516.223198235035 310.577118456364,515.116379320621
    C 309.519227147102,514.010741114616 308.29006922245,512.988476157188 306.888551354408,512.050727069378
    C 305.485940158367,511.112977981567 303.889424026012,510.319541931152 302.096816301346,509.670342743397
    Z
    M 249.836316764355,510.71625995636
    C 247.399545907974,511.197531938553 245.11359000206,511.931246995926 242.976262390614,512.916338682175
    C 240.838934779167,513.902534902096 238.9085034132,515.116379320621 237.18483966589,516.55905264616
    C 235.461240231991,518.001725971699 234.024157047272,519.709258854389 232.875776767731,521.680508673191
    C 232.875776767731,521.680508673191 232.875776767731,569.432774841785 232.875776767731,569.432774841785
    C 232.875776767731,569.432774841785 222.189203023911,569.432774841785 222.189203023911,569.432774841785
    C 222.189203023911,569.432774841785 222.189203023911,500.906134665012 222.189203023911,500.906134665012
    C 222.189203023911,500.906134665012 230.462673246861,500.906134665012 230.462673246861,500.906134665012
    C 230.462673246861,500.906134665012 232.531056880951,511.79824590683 232.531056880951,511.79824590683
    C 232.531056880951,511.79824590683 232.737888813019,511.79824590683 232.737888813019,511.79824590683
    C 233.794686794281,510.019718170166 235.092788696289,508.360670506954 236.633287847042,506.821064829826
    C 238.172693669796,505.282601773739 239.908191084862,503.935718178749 241.83868676424,502.781594753265
    C 243.769118130207,501.627471327782 245.882714092731,500.725790977478 248.181661307812,500.076591789722
    C 250.479450881481,499.427392601967 252.892554402351,499.102773964405 255.420907557011,499.102773964405
    C 255.87978374958,499.102773964405 256.351651251316,499.115190446377 256.834259092808,499.13888078928
    C 257.316866934299,499.163675665855 257.741335451603,499.199706315994 258.109786987305,499.247048914433
    C 258.109786987305,499.247048914433 258.109786987305,509.994923293591 258.109786987305,509.994923293591
    C 258.109786987305,509.994923293591 257.282394945621,509.994923293591 257.282394945621,509.994923293591
    C 254.754041790962,509.994923293591 252.272058606148,510.236130595207 249.836316764355,510.71625995636
    Z
    M 158.759714841843,537.477739691734
    C 158.759714841843,541.854206800461 159.391015291214,545.56905823946 160.655674219131,548.6223320961
    C 161.919368445873,551.676710486412 163.642967879772,554.15292263031 165.826601147652,556.052073061466
    C 168.009141087532,557.952328026295 170.571966230869,559.334137737751 173.513983249664,560.19971126318
    C 176.454971253872,561.065322875977 179.626458525658,561.498109638691 183.028445065022,561.498109638691
    C 186.56729054451,561.498109638691 189.795888125896,561.198323965073 192.715266823769,560.596467375755
    C 195.633616507053,559.99571532011 198.54116153717,559.142520189285 201.436872899532,558.03573936224
    C 201.436872899532,558.03573936224 201.436872899532,567.340902328491 201.436872899532,567.340902328491
    C 199.092713356018,568.543510973454 196.197001993656,569.492533922195 192.749738812447,570.190180242062
    C 189.302475631237,570.886722028255 185.602074861526,571.236135542393 181.649565517902,571.236135542393
    C 176.961310744286,571.236135542393 172.559572219849,570.610588610172 168.44653660059,569.360637366772
    C 164.332407653332,568.110724210739 160.770988166332,566.090989172459 157.763242840767,563.301470339298
    C 154.755497515202,560.51305603981 152.399504303932,556.870303988457 150.696356534958,552.373252272606
    C 148.993144452572,547.877305090427 148.14214938879,542.454920768738 148.14214938879,536.107203841209
    C 148.14214938879,529.856381177902 148.967290461063,524.433996856213 150.617701232433,519.841117322445
    C 152.268047690392,515.249380409718 154.46891695261,511.413944363594 157.220309019089,508.335875630379
    C 159.971636772156,505.258911430836 163.134506046772,502.950664579868 166.711039185524,501.41105890274
    C 170.287572324276,499.872595846653 174.024631738663,499.102773964405 177.922217428684,499.102773964405
    C 181.589239537716,499.102773964405 185.017080068588,499.740737378597 188.203680992126,501.014340877533
    C 191.390217602253,502.289048910141 194.152350008488,504.296405553818 196.491107225418,507.037477254868
    C 198.828835427761,509.778510868549 200.674180150032,513.313056707382 202.027205705643,517.641076683998
    C 203.380295574665,521.969058573246 204.05680835247,527.162652075291 204.05680835247,533.221857190132
    C 204.05680835247,533.798918902874 204.05680835247,534.292569279671 204.05680835247,534.700599253178
    C 204.05680835247,535.109733760357 204.033076703548,536.035066366196 203.987864375114,537.477739691734
    C 203.987864375114,537.477739691734 158.759714841843,537.477739691734 158.759714841843,537.477739691734
    Z
    M 191.806068122387,520.346041560173
    C 191.131677687168,518.014142453671 190.142794668674,515.981990933418 188.839290440083,514.250805795193
    C 187.535786211491,512.519582569599 185.930652081966,511.161463201046 184.022794723511,510.175266981125
    C 182.113844037056,509.190175294876 179.903327763081,508.696524918079 177.391117274761,508.696524918079
    C 174.924183428288,508.696524918079 172.632825195789,509.201449155808 170.51492023468,510.211335718632
    C 168.396950960159,511.221184194088 166.547297239304,512.591720044613 164.965894758701,514.322943270206
    C 163.383334636688,516.054128408432 162.103562057018,518.086241841316 161.126448392868,520.418179035187
    C 160.14830571413,522.751258850098 159.543952584267,525.239849388599 159.31126666069,527.88398873806
    C 159.31126666069,527.88398873806 192.818682789803,527.88398873806 192.818682789803,527.88398873806
    C 192.818682789803,525.191402256489 192.480458557606,522.679121375084 191.806068122387,520.346041560173
    Z
    M 120.564236879349,525.359329462051
    C 120.564236879349,519.444399297237 119.471873581409,515.188516795635 117.289333641529,512.591720044613
    C 115.10570037365,509.994923293591 111.922379434109,508.696524918079 107.740399837494,508.696524918079
    C 104.062573075294,508.696524918079 100.501153588295,509.767275094986 97.0538260936737,511.90645211935
    C 93.6065629124641,514.046771764755 90.6419075727463,516.991877496243 88.1599243879318,520.742797672749
    C 88.1599243879318,520.742797672749 88.1599243879318,569.432774841785 88.1599243879318,569.432774841785
    C 88.1599243879318,569.432774841785 77.4733506441116,569.432774841785 77.4733506441116,569.432774841785
    C 77.4733506441116,569.432774841785 77.4733506441116,500.906134665012 77.4733506441116,500.906134665012
    C 77.4733506441116,500.906134665012 85.7468208670616,500.906134665012 85.7468208670616,500.906134665012
    C 85.7468208670616,500.906134665012 87.815204501152,510.427710056305 87.815204501152,510.427710056305
    C 87.815204501152,510.427710056305 88.0220364332199,510.427710056305 88.0220364332199,510.427710056305
    C 89.216722369194,508.840799868107 90.5384916067123,507.362057805061 91.9863794445992,505.991521954536
    C 93.4342029690742,504.620986104012 95.054450750351,503.41952008009 96.8469941616058,502.384876728058
    C 98.6396018862724,501.351337909698 100.604569554329,500.545447289944 102.741832852364,499.968385577202
    C 104.87916046381,499.39132386446 107.211422026157,499.102773964405 109.739775180817,499.102773964405
    C 112.727068841457,499.102773964405 115.53119790554,499.535598814487 118.151133358479,500.401210427284
    C 120.771068811417,501.266783952713 123.046284377575,502.662114679813 124.976715743542,504.584917366505
    C 126.90721142292,506.508862674236 128.434783577919,509.021143555641 129.561554551125,512.122864544392
    C 130.687360823154,515.224585533142 131.250746309757,519.036407411098 131.250746309757,523.556006848812
    C 131.250746309757,523.556006848812 131.250746309757,569.432774841785 131.250746309757,569.432774841785
    C 131.250746309757,569.432774841785 120.564236879349,569.432774841785 120.564236879349,569.432774841785
    C 120.564236879349,569.432774841785 120.564236879349,525.359329462051 120.564236879349,525.359329462051
    Z
    M 1.01312917470932,472.91839402914
    C 1.01312917470932,472.91839402914 56.9967964291573,472.91839402914 56.9967964291573,472.91839402914
    C 56.9967964291573,472.91839402914 56.9967964291573,483.521993458271 56.9967964291573,483.521993458271
    C 56.9967964291573,483.521993458271 12.2512547373772,483.521993458271 12.2512547373772,483.521993458271
    C 12.2512547373772,483.521993458271 12.2512547373772,514.683592557907 12.2512547373772,514.683592557907
    C 12.2512547373772,514.683592557907 52.0327014327049,514.683592557907 52.0327014327049,514.683592557907
    C 52.0327014327049,514.683592557907 52.0327014327049,525.287191987038 52.0327014327049,525.287191987038
    C 52.0327014327049,525.287191987038 12.2512547373772,525.287191987038 12.2512547373772,525.287191987038
    C 12.2512547373772,525.287191987038 12.2512547373772,558.829175412655 12.2512547373772,558.829175412655
    C 12.2512547373772,558.829175412655 59.5477879047394,558.829175412655 59.5477879047394,558.829175412655
    C 59.5477879047394,558.829175412655 59.5477879047394,569.432774841785 59.5477879047394,569.432774841785
    C 59.5477879047394,569.432774841785 1.01312917470932,569.432774841785 1.01312917470932,569.432774841785
    C 1.01312917470932,569.432774841785 1.01312917470932,472.91839402914 1.01312917470932,472.91839402914
    Z
    M 346.842229366302,500.906134665012
    C 346.842229366302,500.906134665012 367.185397565365,554.645468473434 367.185397565365,554.645468473434
    C 367.185397565365,554.645468473434 367.604463756084,554.645468473434 367.604463756084,554.645468473434
    C 367.604463756084,554.645468473434 388.485227763653,500.906134665012 388.485227763653,500.906134665012
    C 388.485227763653,500.906134665012 399.171737194061,500.906134665012 399.171737194061,500.906134665012
    C 399.171737194061,500.906134665012 358.612484097481,602.974796354771 358.612484097481,602.974796354771
    C 358.612484097481,602.974796354771 347.994918644428,602.974796354771 347.994918644428,602.974796354771
    C 347.994918644428,602.974796354771 361.990803301334,568.062238991261 361.990803301334,568.062238991261
    C 361.990803301334,568.062238991261 336.155655622482,500.906134665012 336.155655622482,500.906134665012
    C 336.155655622482,500.906134665012 346.842229366302,500.906134665012 346.842229366302,500.906134665012
    Z
    M 472.010534763336,483.521993458271
    C 472.010534763336,483.521993458271 425.477723360062,483.521993458271 425.477723360062,483.521993458271
    C 425.477723360062,483.521993458271 425.477723360062,514.683592557907 425.477723360062,514.683592557907
    C 425.477723360062,514.683592557907 466.848161518574,514.683592557907 466.848161518574,514.683592557907
    C 466.848161518574,514.683592557907 466.848161518574,525.287191987038 466.848161518574,525.287191987038
    C 466.848161518574,525.287191987038 425.477723360062,525.287191987038 425.477723360062,525.287191987038
    C 425.477723360062,525.287191987038 425.477723360062,558.829175412655 425.477723360062,558.829175412655
    C 425.477723360062,558.829175412655 474.663398683071,558.829175412655 474.663398683071,558.829175412655
    C 474.663398683071,558.829175412655 474.663398683071,569.432774841785 474.663398683071,569.432774841785
    C 474.663398683071,569.432774841785 413.79069018364,569.432774841785 413.79069018364,569.432774841785
    C 413.79069018364,569.432774841785 413.79069018364,472.91839402914 413.79069018364,472.91839402914
    C 413.79069018364,472.91839402914 472.010534763336,472.91839402914 472.010534763336,472.91839402914
    C 472.010534763336,472.91839402914 472.010534763336,483.521993458271 472.010534763336,483.521993458271
    Z
    M 458.405354082584,595.588627338409
    C 459.773236036301,594.268252551556 461.338302910328,593.282551467419 463.100747644901,592.632552444935
    C 464.862549245358,591.982515335083 466.683068990707,591.657515823841 468.561213552952,591.657515823841
    C 469.998618304729,591.678311526775 471.250736117363,591.843229830265 472.317502677441,592.152765870094
    C 473.383754730225,592.462301909924 474.299963593483,592.849231481552 475.065100252628,593.313516497612
    C 475.830301225185,593.77783960104 476.438963353634,594.237287521362 476.891086637974,594.690946161747
    C 477.343209922314,595.145099937916 477.650306463242,595.506396710873 477.812762141228,595.774341344833
    C 477.812762141228,595.774341344833 477.951872050762,595.774341344833 477.951872050762,595.774341344833
    C 477.951872050762,595.774341344833 479.064879953861,592.43133687973 479.064879953861,592.43133687973
    C 479.064879953861,592.43133687973 483.134182453156,592.43133687973 483.134182453156,592.43133687973
    C 483.134182453156,592.43133687973 483.134182453156,623.570692956448 483.134182453156,623.570692956448
    C 483.134182453156,625.840471565723 482.71678841114,627.816177606583 481.882064640522,629.498306214809
    C 481.047340869904,631.17997777462 479.876193642616,632.578203141689 478.369266092777,633.692525267601
    C 476.861759722233,634.806885480881 475.047735631466,635.637304365635 472.926164805889,636.184315145016
    C 470.804529666901,636.730830788612 468.456897199154,637.004564702511 465.883138775826,637.004564702511
    C 463.703364312649,637.004564702511 461.755696952343,636.8343141675 460.040072381496,636.493851184845
    C 458.323868989944,636.153350114822 456.979397118092,635.74562484026 456.005563437939,635.271170496941
    C 456.005563437939,635.271170496941 456.005563437939,631.216236948967 456.005563437939,631.216236948967
    C 456.793531358242,631.504977285862 457.558732330799,631.747289121151 458.301037728786,631.943667590618
    C 459.04282861948,632.139550924301 459.808029592037,632.304469227791 460.596512019634,632.438917636871
    C 461.384544253349,632.572870910168 462.19045561552,632.671060144901 463.013795912266,632.732990205288
    C 463.836557388306,632.794882178307 464.746785104275,632.8258472085 465.744028866291,632.8258472085
    C 469.616017818451,632.8258472085 472.583760201931,632.021023035049 474.647770524025,630.411450862885
    C 476.711202025414,628.80187869072 477.743239343166,626.345890939236 477.743239343166,623.044477880001
    C 477.743239343166,623.044477880001 477.743239343166,619.113366365433 477.743239343166,619.113366365433
    C 477.743239343166,619.113366365433 477.638858675957,619.113366365433 477.638858675957,619.113366365433
    C 476.456327974796,620.269317984581 475.082529187202,621.14083313942 473.517397999763,621.728940188885
    C 471.952266812325,622.317085325718 470.161138296127,622.611119806767 468.143883824348,622.611119806767
    C 467.216227173805,622.611119806767 466.218983411789,622.518262803555 465.152731359005,622.332548797131
    C 464.085964798927,622.146834790707 463.01919823885,621.83246165514 461.952946186066,621.38847720623
    C 460.886179625988,620.944949805737 459.866168916225,620.356842756271 458.892270922661,619.624117970467
    C 457.918437242508,618.891850233078 457.060367703438,617.973411440849 456.318576812744,616.869220554829
    C 455.576207101345,615.76556289196 454.979507267475,614.460156440735 454.527383983135,612.953610599041
    C 454.075260698795,611.447521805763 453.849134743214,609.70346313715 453.849134743214,607.722424864769
    C 453.849134743214,604.978191912174 454.266528785229,602.59959769249 455.101252555847,600.587632477283
    C 455.935976326466,598.575629174709 457.037021934986,596.909459173679 458.405354082584,595.588627338409
    Z
    M 460.422608554363,612.984537541866
    C 461.048699617386,614.450025200844 461.842648684978,615.589980125427 462.805098891258,616.404935538769
    C 463.766970276833,617.220348000526 464.816372215748,617.777528107166 465.952725887299,618.07643777132
    C 467.088500738144,618.375804483891 468.166650772095,618.525259315968 469.187240302563,618.525259315968
    C 470.8566878438,618.525259315968 472.421819031239,618.226349651814 473.882569551468,617.627616226673
    C 475.343384385109,617.029339849949 476.630231440067,616.214384436607 477.743239343166,615.182254850864
    C 477.743239343166,615.182254850864 477.743239343166,599.798309862614 477.743239343166,599.798309862614
    C 477.441609442234,599.426843762398 477.024215400219,599.004150152206 476.491121530533,598.529200673103
    C 475.957448840141,598.054746329784 475.33740323782,597.616056025028 474.630405902863,597.213662981987
    C 473.9228297472,596.811269938946 473.117432892323,596.470806956291 472.213122010231,596.192197859287
    C 471.308875441551,595.913626849651 470.32307946682,595.774341344833 469.256827414036,595.774341344833
    C 467.65690267086,595.774341344833 466.24831032753,596.058244585991 465.031050384045,596.625555932522
    C 463.813726127148,597.193362414837 462.79313659668,597.982685029507 461.97037512064,598.993523776531
    C 461.147034823895,600.004819571972 460.526989221573,601.217330932617 460.109595179558,602.630562722683
    C 459.692265450954,604.044289648533 459.483568429947,605.607433319092 459.483568429947,607.320031821728
    C 459.483568429947,609.631401836872 459.796581804752,611.519583106041 460.422608554363,612.984537541866
    Z
    M 496.674921095371,490.158260285854
    C 496.674921095371,485.397453546524 497.331432402134,481.321914732456 498.646641671658,477.931681931019
    C 499.960757613182,474.541411042213 501.740952849388,471.752996742725 503.988256394863,469.564191877842
    C 506.234466612339,467.376529633999 508.875046670437,465.765929102898 511.911025583744,464.731285750866
    C 514.945911169052,463.697746932507 518.208273291588,463.180406212807 521.697983324528,463.180406212807
    C 523.370582222939,463.180406212807 525.031990587711,463.277338564396 526.681115090847,463.468918025494
    C 528.330175280571,463.661678195 529.680178105831,463.878052532673 530.732088267803,464.118117213249
    C 530.732088267803,464.118117213249 530.732088267803,473.567593216896 530.732088267803,473.567593216896
    C 529.201750636101,473.32752853632 527.815989553928,473.159601330757 526.573583066463,473.062668979168
    C 525.330018937588,472.966879248619 524.231031358242,472.91839402914 523.275398373604,472.91839402914
    C 520.837598502636,472.91839402914 518.650749564171,473.231738805771 516.71491587162,473.856143116951
    C 514.779017865658,474.481651961803 513.153432071209,475.479122042656 511.839316129684,476.849657893181
    C 510.524106860161,478.220193743706 509.52030313015,480.023516356945 508.827969253063,482.259663820267
    C 508.134477734566,484.495811283588 507.788342952728,487.200814247131 507.788342952728,490.374672710896
    C 507.788342952728,490.374672710896 507.788342952728,500.906134665012 507.788342952728,500.906134665012
    C 507.788342952728,500.906134665012 538.69074434042,500.906134665012 538.69074434042,500.906134665012
    C 538.69074434042,500.906134665012 538.69074434042,492.899331986904 538.69074434042,492.899331986904
    C 538.69074434042,487.465673804283 539.586951732636,482.861520409584 541.379430830479,479.085805356503
    C 543.171909928322,475.311194837093 545.53800034523,472.24554258585 548.477702081203,469.888810515404
    C 551.417339503765,467.53318297863 554.774885475636,465.82565009594 558.551433324814,464.767316401005
    C 562.326887845993,463.71012532711 566.198619544506,463.180406212807 570.166757047176,463.180406212807
    C 571.600688874722,463.180406212807 573.094110608101,463.241269826889 574.647922635078,463.360749900341
    C 576.200705647469,463.481334507465 577.731043279171,463.649261713028 579.236684560776,463.865674138069
    C 580.742390155792,464.082048475742 582.187576830387,464.33452963829 583.57449555397,464.623079538345
    C 584.960320949554,464.911591351032 586.179188728333,465.224936127663 587.231163203716,465.560790538788
    C 587.231163203716,465.560790538788 587.231163203716,475.082404017448 587.231163203716,475.082404017448
    C 584.506589829922,474.40951448679 581.889548480511,473.880937993526 579.380103468895,473.495455741882
    C 576.870594143867,473.111116111279 574.277091503143,472.91839402914 571.600688874722,472.91839402914
    C 564.477849900723,472.91839402914 559.064525723457,474.57747977972 555.360844969749,477.895613193512
    C 551.656006574631,481.213746607304 549.804101884365,486.287860035896 549.804101884365,493.115744411945
    C 549.804101884365,493.115744411945 549.804101884365,500.906134665012 549.804101884365,500.906134665012
    C 549.804101884365,500.906134665012 591.819925129414,500.906134665012 591.819925129414,500.906134665012
    C 591.819925129414,500.906134665012 591.819925129414,569.432774841785 591.819925129414,569.432774841785
    C 591.819925129414,569.432774841785 580.706503272057,569.432774841785 580.706503272057,569.432774841785
    C 580.706503272057,569.432774841785 580.706503272057,510.499847531319 580.706503272057,510.499847531319
    C 580.706503272057,510.499847531319 549.804101884365,510.499847531319 549.804101884365,510.499847531319
    C 549.804101884365,510.499847531319 549.804101884365,569.432774841785 549.804101884365,569.432774841785
    C 549.804101884365,569.432774841785 538.69074434042,569.432774841785 538.69074434042,569.432774841785
    C 538.69074434042,569.432774841785 538.69074434042,510.499847531319 538.69074434042,510.499847531319
    C 538.69074434042,510.499847531319 507.788342952728,510.499847531319 507.788342952728,510.499847531319
    C 507.788342952728,510.499847531319 507.788342952728,569.432774841785 507.788342952728,569.432774841785
    C 507.788342952728,569.432774841785 496.674921095371,569.432774841785 496.674921095371,569.432774841785
    C 496.674921095371,569.432774841785 496.674921095371,510.499847531319 496.674921095371,510.499847531319
    C 496.674921095371,510.499847531319 484.701114416122,510.499847531319 484.701114416122,510.499847531319
    C 484.701114416122,510.499847531319 484.701114416122,500.906134665012 484.701114416122,500.906134665012
    C 484.701114416122,500.906134665012 496.674921095371,500.906134665012 496.674921095371,500.906134665012
    C 496.674921095371,500.906134665012 496.674921095371,490.158260285854 496.674921095371,490.158260285854
    Z
    M 498.785172760487,597.105342507362
    C 498.785172760487,597.105342507362 498.889553427696,597.105342507362 498.889553427696,597.105342507362
    C 499.422647297382,596.342147827148 500.077486455441,595.630218744278 500.854649722576,594.969555258751
    C 501.631169855595,594.30934882164 502.506668329239,593.731411099434 503.480502009392,593.236122965813
    C 504.454400002956,592.740872919559 505.520587742329,592.353943347931 506.680287182331,592.075372338295
    C 507.83947211504,591.796801328659 509.056796371937,591.657515823841 510.332259953022,591.657515823841
    C 510.563723921776,591.657515823841 510.801747858524,591.662809967995 511.045238435268,591.672979295254
    C 511.288729012012,591.683605670929 511.502828359604,591.69910722971 511.688694119453,591.71940779686
    C 511.688694119453,591.71940779686 511.688694119453,596.331483364105 511.688694119453,596.331483364105
    C 511.688694119453,596.331483364105 511.271300077438,596.331483364105 511.271300077438,596.331483364105
    C 509.995836496353,596.331483364105 508.743782997131,596.43500483036 507.51501095295,596.641019403934
    C 506.285788714886,596.847567200661 505.132584929466,597.162397384644 504.054434895515,597.585129082203
    C 502.976220548153,598.008317828178 502.002386868,598.529200673103 501.132869541645,599.148272752762
    C 500.26335221529,599.76734483242 499.538411438465,600.500069618225 498.959076225758,601.34599006176
    C 498.959076225758,601.34599006176 498.959076225758,621.837298750877 498.959076225758,621.837298750877
    C 498.959076225758,621.837298750877 493.568133115768,621.837298750877 493.568133115768,621.837298750877
    C 493.568133115768,621.837298750877 493.568133115768,592.43133687973 493.568133115768,592.43133687973
    C 493.568133115768,592.43133687973 497.741816282272,592.43133687973 497.741816282272,592.43133687973
    C 497.741816282272,592.43133687973 498.785172760487,597.105342507362 498.785172760487,597.105342507362
    Z
    M 519.775076627731,595.929090321064
    C 521.131510794163,594.567124128342 522.777548253536,593.514732062817 524.713832139969,592.771837949753
    C 526.649601519108,592.028943836689 528.81194704771,591.657515823841 531.200354218483,591.657515823841
    C 533.635002732277,591.657515823841 535.826160669327,592.028943836689 537.773828029633,592.771837949753
    C 539.72155970335,593.514732062817 541.367661476135,594.567124128342 542.712647855282,595.929090321064
    C 544.057119727135,597.291056513786 545.089092731476,598.921462476254 545.808116674423,600.819774985313
    C 546.526497483253,602.718582630157 546.886266708374,604.833574175835 546.886266708374,607.165282845497
    C 546.886266708374,609.476652860641 546.51511400938,611.58147507906 545.773323118687,613.479825675488
    C 545.030953407288,615.378633320332 543.982130289078,617.003707051277 542.625696122646,618.355008780956
    C 541.269261956215,619.70680564642 539.628626823425,620.753903567791 537.704305231571,621.496797680855
    C 535.779404819012,622.239691793919 533.623040437698,622.611119806767 531.23514777422,622.611119806767
    C 528.777153491974,622.611119806767 526.580014407635,622.239691793919 524.644309341908,621.496797680855
    C 522.708025455475,620.753903567791 521.06192368269,619.70680564642 519.705489516258,618.355008780956
    C 518.349055349827,617.003707051277 517.311101198196,615.378633320332 516.592656075954,613.479825675488
    C 515.873696446419,611.58147507906 515.514506042004,609.476652860641 515.514506042004,607.165282845497
    C 515.514506042004,604.833574175835 515.885079920292,602.718582630157 516.627449631691,600.819774985313
    C 517.369240522385,598.921462476254 518.4186424613,597.291056513786 519.775076627731,595.929090321064
    Z
    M 521.896647453308,611.978573977947
    C 522.395012080669,613.392262816429 523.096542775631,614.58397847414 524.000853657722,615.55372095108
    C 524.905164539814,616.523920476437 525.971352279186,617.261482357979 527.200638830662,617.766901731491
    C 528.429346561432,618.272778153419 529.77439725399,618.525259315968 531.23514777422,618.525259315968
    C 532.695962607861,618.525259315968 534.034967839718,618.272778153419 535.252292096615,617.766901731491
    C 536.469616353512,617.261482357979 537.524420619011,616.523920476437 538.417283713818,615.55372095108
    C 539.309632301331,614.58397847414 540.005246162415,613.392262816429 540.50412529707,611.978573977947
    C 541.002425611019,610.565342187881 541.251897335052,608.960569024086 541.251897335052,607.165282845497
    C 541.251897335052,605.34965801239 541.002425611019,603.734753608704 540.50412529707,602.321026682854
    C 540.005246162415,600.907794892788 539.309632301331,599.710747003555 538.417283713818,598.730416238308
    C 537.524420619011,597.750542521477 536.463635206223,597.007648408413 535.234863162041,596.501733899117
    C 534.005640923977,595.996314525604 532.661169052124,595.74337631464 531.200354218483,595.74337631464
    C 529.739603698254,595.74337631464 528.394617319107,595.996314525604 527.165845274925,596.501733899117
    C 525.936623036861,597.007648408413 524.875773310661,597.750542521477 523.98348903656,598.730416238308
    C 523.090625941753,599.710747003555 522.395012080669,600.907794892788 521.896647453308,602.321026682854
    C 521.397768318653,603.734753608704 521.148875415325,605.34965801239 521.148875415325,607.165282845497
    C 521.148875415325,608.960569024086 521.397768318653,610.565342187881 521.896647453308,611.978573977947
    Z
    M 560.450544059277,610.446357250214
    C 560.450544059277,612.076725125313 560.693970322609,613.438691318035 561.180887162685,614.532255828381
    C 561.737391114235,615.770399987698 562.635720849037,616.745436608791 563.876390874386,617.457365691662
    C 565.116546392441,618.169294774532 566.699042201042,618.525259315968 568.62387830019,618.525259315968
    C 570.663964033127,618.525259315968 572.304599165916,618.133492648602 573.545333504677,617.349007129669
    C 574.78542470932,616.565016746521 575.672306656837,615.512586593628 576.205979347229,614.191754758358
    C 576.599963307381,613.180916011333 576.797276854515,611.932145476341 576.797276854515,610.446357250214
    C 576.797276854515,610.446357250214 576.797276854515,592.43133687973 576.797276854515,592.43133687973
    C 576.797276854515,592.43133687973 582.188219964504,592.43133687973 582.188219964504,592.43133687973
    C 582.188219964504,592.43133687973 582.188219964504,610.508249223232 582.188219964504,610.508249223232
    C 582.188219964504,611.498787403107 582.124099493027,612.422558426857 581.996887564659,613.278610110283
    C 581.86922544241,614.135156929493 581.666509568691,614.924479544163 581.388225436211,615.646577954292
    C 580.970895707607,616.657873749733 580.397027134895,617.591814100742 579.666619718075,618.447865784168
    C 578.936276614666,619.304412603378 578.037368059158,620.041974484921 576.971180319786,620.661046564579
    C 575.904413759708,621.280118644238 574.669660568237,621.759905219078 573.267049372196,622.100406289101
    C 571.863923668861,622.440907359123 570.281363546848,622.611119806767 568.519561946392,622.611119806767
    C 566.80335855484,622.611119806767 565.261637449265,622.445744454861 563.893755495548,622.115869760513
    C 562.52542334795,621.786033153534 561.325463712215,621.321710050106 560.294005215168,620.722976624966
    C 559.262032210827,620.124700248241 558.386533737183,619.407438933849 557.668088614941,618.571687817574
    C 556.949128985405,617.735936701298 556.381241559982,616.822792053223 555.963847517967,615.832291960716
    C 555.638871848583,615.089397847652 555.407407879829,614.274442434311 555.268297970295,613.386968672276
    C 555.129123747349,612.499951958656 555.059600949287,611.5297524333 555.059600949287,610.477322280407
    C 555.059600949287,610.477322280407 555.059600949287,592.43133687973 555.059600949287,592.43133687973
    C 555.059600949287,592.43133687973 560.450544059277,592.43133687973 560.450544059277,592.43133687973
    C 560.450544059277,592.43133687973 560.450544059277,610.446357250214 560.450544059277,610.446357250214
    Z
    M 597.491403341293,595.774341344833
    C 597.491403341293,595.774341344833 597.595784008503,595.774341344833 597.595784008503,595.774341344833
    C 597.89683508873,595.361778974533 598.285352408886,594.959385931492 598.760885775089,594.567124128342
    C 599.235840320587,594.175395548344 599.873829364777,593.757500946522 600.67382389307,593.313516497612
    C 601.473754107952,592.870027184486 602.435625493526,592.483097612858 603.560595691204,592.152765870094
    C 604.684922754765,591.822891175747 605.908228158951,591.657515823841 607.229868769646,591.657515823841
    C 609.084667563438,591.657515823841 610.875860393047,591.936086833477 612.603447258472,592.493228852749
    C 614.330519616604,593.050408959389 615.855390608311,593.937920808792 617.177031219006,595.155269265175
    C 618.4986718297,596.373074769974 619.559521555901,597.936256527901 620.359451770782,599.84473836422
    C 621.159381985664,601.753715336323 621.559347093105,604.069922447205 621.559347093105,606.793816745281
    C 621.559347093105,608.836785078049 621.332192122936,610.647572815418 620.877882182598,612.22617995739
    C 620.42357224226,613.804825186729 619.824171245098,615.182254850864 619.079100370407,616.358507037163
    C 618.333514988422,617.534721136093 617.460203170776,618.52042222023 616.459164917469,619.314581930637
    C 615.457612156868,620.109198689461 614.42126584053,620.749066472054 613.350125968456,621.233690142632
    C 612.278471589088,621.718808948994 611.189967095852,622.069441258907 610.083519160748,622.286120295525
    C 608.977071225643,622.502799332142 607.93525826931,622.611119806767 606.957630097866,622.611119806767
    C 604.931114494801,622.611119806767 603.17252856493,622.317085325718 601.68245112896,621.728940188885
    C 600.191794872284,621.14083313942 598.852725327015,620.269317984581 597.665306806564,619.113366365433
    C 597.665306806564,619.113366365433 597.563177108765,619.113366365433 597.563177108765,619.113366365433
    C 597.563177108765,619.113366365433 597.563177108765,636.230743646622 597.563177108765,636.230743646622
    C 597.563177108765,636.230743646622 592.274363696575,636.230743646622 592.274363696575,636.230743646622
    C 592.274363696575,636.230743646622 592.274363696575,592.43133687973 592.274363696575,592.43133687973
    C 592.274363696575,592.43133687973 596.343666195869,592.43133687973 596.343666195869,592.43133687973
    C 596.343666195869,592.43133687973 597.491403341293,595.774341344833 597.491403341293,595.774341344833
    Z
    M 597.560990452766,615.182254850864
    C 598.703260958195,616.214384436607 600.003742456436,617.029339849949 601.46127730608,617.627616226673
    C 602.918747842312,618.226349651814 604.486580193043,618.525259315968 606.16580337286,618.525259315968
    C 607.191859543324,618.525259315968 608.275990724564,618.355008780956 609.418840050697,618.014507710934
    C 610.561174869537,617.674044728279 611.616557955742,617.065599024296 612.584410488606,616.188256502151
    C 613.551748514175,615.311409115791 614.350585401058,614.11969345808 614.980470955372,612.613109529018
    C 615.60977768898,611.107020735741 615.924977719784,609.187912523746 615.924977719784,606.855746805668
    C 615.924977719784,605.143110215664 615.720654010773,603.605599343777 615.312521100044,602.243633151054
    C 614.904388189316,600.881666958332 614.29244607687,599.720916330814 613.476180255413,598.761343181133
    C 612.659978747368,597.80180811882 611.657332658768,597.064246237278 610.468241989613,596.548162400723
    C 609.278636813164,596.032611787319 607.902651369572,595.774341344833 606.34080016613,595.774341344833
    C 605.22136092186,595.774341344833 604.200771391392,595.908789753914 603.279610395432,596.176734387875
    C 602.358449399471,596.445174157619 601.524818956852,596.785637140274 600.778719067574,597.198199510574
    C 600.032554864883,597.611218929291 599.391285836697,598.054746329784 598.854911983013,598.529200673103
    C 598.31853812933,599.004150152206 597.88705945015,599.426843762398 597.560990452766,599.798309862614
    C 597.560990452766,599.798309862614 597.560990452766,615.182254850864 597.560990452766,615.182254850864
    Z
    M 612.755870044231,551.760121822357
    C 610.986929655075,547.336312115192 610.103006124496,542.094271481037 610.103006124496,536.035066366196
    C 610.103006124496,531.515466928482 610.569021105766,527.451201975346 611.501115381718,523.844518661499
    C 612.433209657669,520.23787343502 613.71150302887,517.063976883888 615.337024509907,514.322943270206
    C 616.961452662945,511.581871569157 618.861528098583,509.249934375286 621.037122189999,507.325989067554
    C 623.211622953415,505.403186380863 625.52954262495,503.827511966228 627.991974532604,502.601251065731
    C 630.453248798847,501.374990165234 632.998580694199,500.485726296902 635.627970218658,499.932316839695
    C 638.256202101707,499.380050003529 640.813817858696,499.102773964405 643.299788475037,499.102773964405
    C 646.597973167896,499.102773964405 649.752738952637,499.452187478542 652.764085829258,500.148729264736
    C 655.775432705879,500.84641367197 658.356651484966,501.82019340992 660.507613539696,503.07014465332
    C 660.507613539696,503.07014465332 660.507613539696,512.37534570694 660.507613539696,512.37534570694
    C 657.496266663074,511.221184194088 654.723522543907,510.355610668659 652.190474510193,509.778510868549
    C 649.656397461891,509.201449155808 647.075178682804,508.912937343121 644.446946799755,508.912937343121
    C 641.674202680588,508.912937343121 638.926090598106,509.37051898241 636.201517224312,510.283473193645
    C 633.476943850517,511.197531938553 631.039208292961,512.699926257133 628.888246238232,514.791798770428
    C 626.73721987009,516.883671283722 625.004102051258,519.649537861347 623.689986109734,523.087113261223
    C 622.37477684021,526.525869369507 621.718265533447,530.794130265713 621.718265533447,535.890791416168
    C 621.718265533447,539.594368994236 622.207883536816,543.008330225945 623.18814855814,546.133741557598
    C 624.167255938053,549.260257422924 625.625884115696,551.965260386467 627.561782121658,554.248712360859
    C 629.497680127621,556.533306956291 631.92313182354,558.312977313995 634.839230537415,559.586580812931
    C 637.754300236702,560.861326932907 641.12413007021,561.498109638691 644.948848664761,561.498109638691
    C 647.720499455929,561.498109638691 650.516782283783,561.198323965073 653.337697148323,560.596467375755
    C 656.157454371452,559.99571532011 658.905566453934,559.142520189285 661.583126723766,558.03573936224
    C 661.583126723766,558.03573936224 661.583126723766,567.340902328491 661.583126723766,567.340902328491
    C 660.769755005836,567.822174310684 659.706589996815,568.303446292877 658.39247405529,568.78357565403
    C 657.077264785767,569.264847636223 655.632078111172,569.685256004334 654.054663062096,570.045905292034
    C 652.477312326431,570.406592667103 650.80355578661,570.69510447979 649.035708725452,570.911516904831
    C 647.266768336296,571.127929329872 645.49782794714,571.236135542393 643.729980885983,571.236135542393
    C 639.141218960285,571.236135542393 634.803407967091,570.538451135159 630.716547906399,569.144263029099
    C 626.629687845707,567.75003683567 623.055920183659,565.609717190266 619.997495889664,562.724370539188
    C 616.93797826767,559.839061975479 614.523717105389,556.185036063194 612.755870044231,551.760121822357
    Z
    M 689.975954473019,484.96466678381
    C 689.975954473019,484.96466678381 678.862532615662,484.96466678381 678.862532615662,484.96466678381
    C 678.862532615662,484.96466678381 678.862532615662,472.485607266426 678.862532615662,472.485607266426
    C 678.862532615662,472.485607266426 689.975954473019,472.485607266426 689.975954473019,472.485607266426
    C 689.975954473019,472.485607266426 689.975954473019,484.96466678381 689.975954473019,484.96466678381
    Z
    M 690.262727975845,569.432774841785
    C 690.262727975845,569.432774841785 679.149306118488,569.432774841785 679.149306118488,569.432774841785
    C 679.149306118488,569.432774841785 679.149306118488,500.906134665012 679.149306118488,500.906134665012
    C 679.149306118488,500.906134665012 690.262727975845,500.906134665012 690.262727975845,500.906134665012
    C 690.262727975845,500.906134665012 690.262727975845,569.432774841785 690.262727975845,569.432774841785
    Z
    M 717.986567616463,508.335875630379
    C 720.847806990147,505.258911430836 724.137052118778,502.950664579868 727.856425344944,501.41105890274
    C 731.575862884521,499.872595846653 735.462193727493,499.102773964405 739.515417873859,499.102773964405
    C 743.328945934772,499.102773964405 746.893709719181,499.740737378597 750.207586884499,501.014340877533
    C 753.521464049816,502.289048910141 756.393893957138,504.296405553818 758.826098561287,507.037477254868
    C 761.257145524025,509.778510868549 763.176193416119,513.313056707382 764.58330655098,517.641076683998
    C 765.990419685841,521.969058573246 766.693944096565,527.162652075291 766.693944096565,533.221857190132
    C 766.693944096565,533.798918902874 766.693944096565,534.292569279671 766.693944096565,534.700599253178
    C 766.693944096565,535.109733760357 766.669312059879,536.035066366196 766.622234642506,537.477739691734
    C 766.622234642506,537.477739691734 719.587521374226,537.477739691734 719.587521374226,537.477739691734
    C 719.587521374226,541.854206800461 720.243968367577,545.56905823946 721.559241950512,548.6223320961
    C 722.873357892036,551.676710486412 724.66583698988,554.15292263031 726.936679244041,556.052073061466
    C 729.206428170204,557.952328026295 731.871640264988,559.334137737751 734.931157886982,560.19971126318
    C 737.989582180977,561.065322875977 741.287766873837,561.498109638691 744.825647652149,561.498109638691
    C 748.505854010582,561.498109638691 751.863399982452,561.198323965073 754.899443209171,560.596467375755
    C 757.934328794479,559.99571532011 760.958023846149,559.142520189285 763.969370722771,558.03573936224
    C 763.969370722771,558.03573936224 763.969370722771,567.340902328491 763.969370722771,567.340902328491
    C 761.531635165215,568.543510973454 758.520223975182,569.492533922195 754.935265779495,570.190180242062
    C 751.350307583809,570.886722028255 747.502050280571,571.236135542393 743.391651511192,571.236135542393
    C 738.516116082668,571.236135542393 733.938544690609,570.610588610172 729.661252617836,569.360637366772
    C 725.382802903652,568.110724210739 721.679122149944,566.090989172459 718.5512393713,563.301470339298
    C 715.423356592655,560.51305603981 712.973208546638,556.870303988457 711.202017188072,552.373252272606
    C 709.430825829506,547.877305090427 708.545808970928,542.454920768738 708.545808970928,536.107203841209
    C 708.545808970928,529.856381177902 709.40394282341,524.433996856213 711.120274841785,519.841117322445
    C 712.836542546749,515.249380409718 715.125328242779,511.413944363594 717.986567616463,508.335875630379
    Z
    M 755.006975233555,527.88398873806
    C 755.006975233555,525.191402256489 754.655180871487,522.679121375084 753.953907430172,520.346041560173
    C 753.252569675446,518.014142453671 752.224133908749,515.981990933418 750.868600130081,514.250805795193
    C 749.513002038002,512.519582569599 747.843747437,511.161463201046 745.859678685665,510.175266981125
    C 743.874516606331,509.190175294876 741.575698018074,508.696524918079 738.963094294071,508.696524918079
    C 736.397632300854,508.696524918079 734.014756083488,509.201449155808 731.812214672565,510.211335718632
    C 729.609737575054,511.221184194088 727.686187744141,512.591720044613 726.041565179825,514.322943270206
    C 724.39584928751,516.054128408432 723.064947545528,518.086241841316 722.048795640469,520.418179035187
    C 721.03155040741,522.751258850098 720.403079748154,525.239849388599 720.161068379879,527.88398873806
    C 720.161068379879,527.88398873806 755.006975233555,527.88398873806 755.006975233555,527.88398873806
    Z
" />
</svg>
