<svg xmlns="http://www.w3.org/2000/svg" viewBox="0 0 1161 449">
<path fill="#fff" id="eeg-long" fill-rule="evenodd" d="
    M 1129.22809427977,257.038846850395
    C 1130.57287716866,257.792585492134 1132.13024550676,258.411976456642 1133.8991612792,258.896992981434
    C 1135.66807705164,259.383160293102 1137.49692088366,259.820379018784 1139.38458555937,260.208622395992
    C 1141.97906917334,260.791562855244 1144.43224436045,261.436003506184 1146.74397271872,262.139616012573
    C 1149.05577027798,262.844406068325 1151.18999809027,263.900988996029 1153.14887058735,265.30939155817
    C 1155.10670506954,266.718944907188 1156.68670213223,268.624888837337 1157.89010739326,271.029551684856
    C 1159.09344345331,273.43418776989 1159.69514608383,276.556138753891 1159.69514608383,280.393103063107
    C 1159.69514608383,283.8907725811 1159.01884478331,286.98767387867 1157.66838741302,289.683780193329
    C 1156.31682282686,292.379913270473 1154.41109669209,294.638827621937 1151.95003259182,296.460523247719
    C 1149.48896849155,298.282218873501 1146.54495066404,299.666722536087 1143.11915552616,300.614007472992
    C 1139.69218397141,301.561292409897 1135.92820358276,302.034934878349 1131.82721436024,302.034934878349
    C 1129.31743276119,302.034934878349 1127.03732925653,301.900587201118 1124.98683464527,301.634166657925
    C 1122.93516361713,301.366595327854 1121.12555766106,301.026176512241 1119.55801677704,300.614007472992
    C 1117.98929947615,300.201838433743 1116.65019106865,299.776020526886 1115.54069155455,299.33882856369
    C 1114.43001562357,298.901609838009 1113.51393288374,298.489440798759 1112.79009050131,298.100046634674
    C 1112.79009050131,298.100046634674 1112.79009050131,288.627197265625 1112.79009050131,288.627197265625
    C 1115.63224446774,289.793078184128 1118.4507316947,290.716464221478 1121.24659019709,291.396177828312
    C 1124.04244869947,292.077042222023 1127.12216967344,292.416337013245 1130.48575311899,292.416337013245
    C 1133.13912677765,292.416337013245 1135.53119748831,292.173842132092 1137.66314166784,291.687674820423
    C 1139.79508584738,291.202631533146 1141.63071137667,290.485343396664 1143.17119467258,289.538058459759
    C 1144.71160876751,288.590773522854 1145.89570695162,287.40096694231 1146.72480404377,285.967514693737
    C 1147.55383193493,284.535186469555 1147.96889948845,282.870613396168 1147.96889948845,280.976043522358
    C 1147.96889948845,279.033649086952 1147.59002405405,277.430549442768 1146.83220398426,276.166744589806
    C 1146.07445311546,274.90409052372 1145.05539929867,273.860005676746 1143.77621895075,273.033419549465
    C 1142.49710780382,272.207957446575 1141.01662176847,271.528243839741 1139.33476084471,270.9931011796
    C 1137.65296912193,270.459109306335 1135.88862061501,269.972968757153 1134.04164612293,269.535750031471
    C 1131.62583947182,269.001758158207 1129.17384070158,268.369842350483 1126.6867570281,267.641180157661
    C 1124.19967335463,266.912491202354 1121.93763130903,265.892332017422 1119.90070009232,264.580702602863
    C 1117.8637688756,263.269073188305 1116.21816927195,261.48382806778 1114.96272486448,259.224913716316
    C 1113.70728045702,256.965999364853 1113.07962745428,254.063795149326 1113.07962745428,250.51715028286
    C 1113.07962745428,246.873759031296 1113.73108559847,243.716508328915 1115.03400188684,241.044300913811
    C 1116.33691817522,238.373217523098 1118.09787583351,236.162127733231 1120.31805127859,234.413306355476
    C 1122.5370503068,232.664458215237 1125.11914694309,231.352828800678 1128.0631647706,230.478418111801
    C 1131.00607538223,229.604007422924 1134.11859762669,229.166788697243 1137.40080070496,229.166788697243
    C 1141.21225297451,229.166788697243 1144.74780088663,229.531133174896 1148.00509160757,230.259822130203
    C 1151.26238232851,230.988484323025 1154.21767991781,231.911870360374 1156.87216079235,233.02880269289
    C 1156.87216079235,233.02880269289 1156.87216079235,242.647400557995 1156.87216079235,242.647400557995
    C 1154.04689186811,241.530468225479 1151.18543082476,240.619607031345 1148.29006129503,239.914843738079
    C 1145.39469176531,239.211204469204 1142.41676545143,238.834335148335 1139.3562823534,238.785386562347
    C 1136.76629680395,238.785386562347 1134.55290305614,239.052957892418 1132.71617031097,239.586949765682
    C 1130.87936836481,240.122065663338 1129.37286275625,240.862128674984 1128.19547706842,241.809413611889
    C 1127.0180913806,242.756698548794 1126.15854585171,243.874781668186 1125.61794769764,245.161361396313
    C 1125.0761731267,246.44906514883 1124.80587404966,247.869992554188 1124.80587404966,249.424143612385
    C 1124.80587404966,251.318713486195 1125.20627099276,252.873988568783 1126.00810289383,254.087694048882
    C 1126.8100039959,255.302550315857 1127.88338059187,256.286258995533 1129.22809427977,257.038846850395
    Z
    M 1106.66165059805,372.256057143211
    C 1106.13779908419,373.526231467724 1105.41748595238,374.699231207371 1104.50071120262,375.7744140625
    C 1103.58393645287,376.85018569231 1102.45575267076,377.776542365551 1101.11740547419,378.554072856903
    C 1099.77843546867,379.331603348255 1098.22867923975,379.934214234352 1096.46813678741,380.361851990223
    C 1094.70690232515,380.789489746094 1092.72055703402,381.003322005272 1090.50917011499,381.003322005272
    C 1088.35501241684,381.003322005272 1086.41987586021,380.795564830303 1084.7029992342,380.381281554699
    C 1082.98543059826,379.966998279095 1081.47927099466,379.383843719959 1080.1846588254,378.631844639778
    C 1078.88928544521,377.880434334278 1077.79044288397,376.979582309723 1076.8886847496,375.929904103279
    C 1075.98623460531,374.880252659321 1075.2733951807,373.733373105526 1074.74954366684,372.489318966866
    C 1074.34160381556,371.556298434734 1074.05102884769,370.532740414143 1073.8764347434,369.418082892895
    C 1073.70184063911,368.304014146328 1073.61450898647,367.085464656353 1073.61450898647,365.763665497303
    C 1073.61450898647,365.763665497303 1073.61450898647,343.098570048809 1073.61450898647,343.098570048809
    C 1073.61450898647,343.098570048809 1080.38105124235,343.098570048809 1080.38105124235,343.098570048809
    C 1080.38105124235,343.098570048809 1080.38105124235,365.724779605865 1080.38105124235,365.724779605865
    C 1080.38105124235,367.77248442173 1080.6866428256,369.483062207699 1081.29782599211,370.856512963772
    C 1081.99634081125,372.411573946476 1083.12390178442,373.63619852066 1084.68113172054,374.53035992384
    C 1086.23773884773,375.424521327019 1088.22408413887,375.871588647366 1090.64009839296,375.871588647366
    C 1093.20074272156,375.871588647366 1095.26009505987,375.379560351372 1096.81732499599,374.394272685051
    C 1098.37393212318,373.409600555897 1099.48716849089,372.087801396847 1100.15696489811,370.428875207901
    C 1100.65154439211,369.15928965807 1100.89914554358,367.590874195099 1100.89914554358,365.724779605865
    C 1100.89914554358,365.724779605865 1100.89914554358,343.098570048809 1100.89914554358,343.098570048809
    C 1100.89914554358,343.098570048809 1107.66575700045,343.098570048809 1107.66575700045,343.098570048809
    C 1107.66575700045,343.098570048809 1107.66575700045,365.802551388741 1107.66575700045,365.802551388741
    C 1107.66575700045,367.046605527401 1107.58527624607,368.206812798977 1107.42562955618,369.281995654106
    C 1107.26536005735,370.357794046402 1107.01090800762,371.349156796932 1106.66165059805,372.256057143211
    Z
    M 1050.17779362202,267.932650387287
    C 1050.17779362202,272.353705942631 1050.840531528,276.106395184994 1052.1683601737,279.190771639347
    C 1053.49501240253,282.276298880577 1055.30461835861,284.777708113194 1057.59717804194,286.696203649044
    C 1059.88856130838,288.615823209286 1062.57923430204,290.011700928211 1065.66802060604,290.886111617088
    C 1068.75569969416,291.760522305965 1072.08537465334,292.197741031647 1075.65704548359,292.197741031647
    C 1079.37244677544,292.197741031647 1082.7620497942,291.894869983196 1085.82710015774,291.286879837513
    C 1088.8909741044,290.680040478706 1091.94356828928,289.81812787056 1094.98370629549,288.700071513653
    C 1094.98370629549,288.700071513653 1094.98370629549,298.100046634674 1094.98370629549,298.100046634674
    C 1092.52264219522,299.314902901649 1089.48250418901,300.273588657379 1085.86329227686,300.978351950645
    C 1082.2440803647,301.681991219521 1078.35906744003,302.034934878349 1074.20936071873,302.034934878349
    C 1069.2872325182,302.034934878349 1064.66599023342,301.403045833111 1060.34777909517,300.140365004539
    C 1056.02846074104,298.877710938454 1052.28932350874,296.837392568588 1049.13154381514,294.019436657429
    C 1045.97383332253,291.202631533146 1043.50031304359,287.522789776325 1041.71215939522,282.979911386967
    C 1039.92407494783,278.438183784485 1039.03055173159,272.960545301437 1039.03055173159,266.548146724701
    C 1039.03055173159,260.233672082424 1039.89687895775,254.756033599377 1041.62960261106,250.116382062435
    C 1043.36232626438,245.47788131237 1045.67294740677,241.603342473507 1048.56153523922,238.493916332722
    C 1051.45012307167,235.385640978813 1054.77080190182,233.053852379322 1058.52571696043,231.498577296734
    C 1062.28063201904,229.944426238537 1066.20412069559,229.166788697243 1070.29611378908,229.166788697243
    C 1074.14604181051,229.166788697243 1077.74490863085,229.811229348183 1081.09043061733,231.097809076309
    C 1084.43595260382,232.385512828827 1087.33582019806,234.413306355476 1089.79127901793,237.182286918163
    C 1092.24556142092,239.95126748085 1094.1829816103,243.521811246872 1095.60353958607,247.893918216228
    C 1097.02402836084,252.2659984231 1097.73430734873,257.512489318848 1097.73430734873,263.633417665958
    C 1097.73430734873,264.216384887695 1097.73430734873,264.715050280094 1097.73430734873,265.127219319344
    C 1097.73430734873,265.540512382984 1097.70946419239,266.475272476673 1097.66192311049,267.932650387287
    C 1097.66192311049,267.932650387287 1050.17779362202,267.932650387287 1050.17779362202,267.932650387287
    Z
    M 1084.87247246504,250.626448273659
    C 1084.16447710991,248.270760774612 1083.12625461817,246.217944324017 1081.75773578882,244.469096183777
    C 1080.38921695948,242.720274806023 1078.70403438807,241.348295986652 1076.70101165771,240.35206246376
    C 1074.69688171148,239.35695296526 1072.37601882219,238.858260810375 1069.73849219084,238.858260810375
    C 1067.14850664139,238.858260810375 1064.74287253618,239.368327021599 1062.51930624247,240.388486206532
    C 1060.29573994875,241.408645391464 1058.35382169485,242.793122291565 1056.69348227978,244.541970431805
    C 1055.03203564882,246.290818572044 1053.68842917681,248.34363502264 1052.66259366274,250.699322521687
    C 1051.63565093279,253.05616080761 1051.00114703178,255.570121645927 1050.75686752796,258.241178274155
    C 1050.75686752796,258.241178274155 1085.9356765151,258.241178274155 1085.9356765151,258.241178274155
    C 1085.9356765151,255.521146297455 1085.58053702116,252.983286559582 1084.87247246504,250.626448273659
    Z
    M 1051.91778337955,343.526234567165
    C 1054.36251604557,344.459255099297 1056.42865008116,345.781081020832 1058.11687749624,347.491632044315
    C 1059.8044129014,349.202209830284 1061.09978628159,351.249914646149 1062.00223642588,353.634157717228
    C 1062.90399456024,356.018989562988 1063.35553103685,358.675353586674 1063.35553103685,361.603865325451
    C 1063.35553103685,364.506845653057 1062.88966995478,367.150470733643 1061.95857059956,369.534713804722
    C 1061.02677923441,371.919545650482 1059.71029955149,373.960559844971 1058.00774753094,375.657783150673
    C 1056.30519551039,377.355595231056 1054.24584317207,378.67070376873 1051.83052092791,379.603751063347
    C 1049.41443747282,380.536798357964 1046.70777904987,381.003322005272 1043.71061486006,381.003322005272
    C 1040.62535780668,381.003322005272 1037.86755985022,380.536798357964 1035.43791300058,379.603751063347
    C 1033.00750494003,378.67070376873 1030.94137090445,377.355595231056 1029.2388188839,375.657783150673
    C 1027.53626686335,373.960559844971 1026.23341977596,371.919545650482 1025.3316616416,369.534713804722
    C 1024.42921149731,367.150470733643 1023.97836703062,364.506845653057 1023.97836703062,361.603865325451
    C 1023.97836703062,358.675353586674 1024.44353610277,356.018989562988 1025.37532746792,353.634157717228
    C 1026.30642682314,351.249914646149 1027.62359851599,349.202209830284 1029.32615053654,347.491632044315
    C 1031.02870255709,345.781081020832 1033.09483659267,344.459255099297 1035.52517545223,343.526234567165
    C 1037.95489150286,342.593187272549 1040.669023633,342.12666362524 1043.66694903374,342.12666362524
    C 1046.72279566526,342.12666362524 1049.47311991453,342.593187272549 1051.91778337955,343.526234567165
    Z
    M 1034.60846990347,351.009988963604
    C 1033.48769062757,352.241277396679 1032.61458170414,353.744713544846 1031.98914313316,355.519681870937
    C 1031.36294335127,357.29523897171 1031.05050086975,359.323514223099 1031.05050086975,361.603865325451
    C 1031.05050086975,363.858711779118 1031.36294335127,365.874221324921 1031.98914313316,367.649189651012
    C 1032.61458170414,369.424746751785 1033.49523353577,370.921492278576 1034.63026821613,372.139426231384
    C 1035.7653028965,373.357975721359 1037.10358089209,374.2843323946 1038.64655542374,374.919111788273
    C 1040.18883794546,375.554506719112 1041.87706536055,375.871588647366 1043.71061486006,375.871588647366
    C 1045.54409515858,375.871588647366 1047.22484886646,375.554506719112 1048.75280678272,374.919111788273
    C 1050.28076469898,374.2843323946 1051.6047180891,373.357975721359 1052.72542816401,372.139426231384
    C 1053.84544622898,370.921492278576 1054.71855515242,369.424746751785 1055.34475493431,367.649189651012
    C 1055.97026270628,365.874221324921 1056.28332799673,363.858711779118 1056.28332799673,361.603865325451
    C 1056.28332799673,359.323514223099 1055.97026270628,357.29523897171 1055.34475493431,355.519681870937
    C 1054.71855515242,353.744713544846 1053.84544622898,352.241277396679 1052.72542816401,351.009988963604
    C 1051.6047180891,349.77928930521 1050.27322179079,348.846242010593 1048.73093926907,348.210873842239
    C 1047.18803393841,347.576067686081 1045.50049853325,347.258396983147 1043.66694903374,347.258396983147
    C 1041.83339953423,347.258396983147 1040.14517211914,347.576067686081 1038.60288959742,348.210873842239
    C 1037.05998426676,348.846242010593 1035.72848796844,349.77928930521 1034.60846990347,351.009988963604
    Z
    M 1009.35322165489,230.988484323025
    C 1009.35322165489,230.988484323025 1020.57277858257,230.988484323025 1020.57277858257,230.988484323025
    C 1020.57277858257,230.988484323025 1020.57277858257,300.213239252567 1020.57277858257,300.213239252567
    C 1020.57277858257,300.213239252567 1009.35322165489,300.213239252567 1009.35322165489,300.213239252567
    C 1009.35322165489,300.213239252567 1009.35322165489,230.988484323025 1009.35322165489,230.988484323025
    Z
    M 1009.06368470192,202.278439223766
    C 1009.06368470192,202.278439223766 1020.2832416296,202.278439223766 1020.2832416296,202.278439223766
    C 1020.2832416296,202.278439223766 1020.2832416296,214.884640395641 1020.2832416296,214.884640395641
    C 1020.2832416296,214.884640395641 1009.06368470192,214.884640395641 1009.06368470192,214.884640395641
    C 1009.06368470192,214.884640395641 1009.06368470192,202.278439223766 1009.06368470192,202.278439223766
    Z
    M 1012.88987678289,342.651502728462
    C 1014.34482765198,342.301609992981 1015.87278556824,342.12666362524 1017.47368133068,342.12666362524
    C 1017.76432549953,342.12666362524 1018.06306618452,342.133354246616 1018.36865776777,342.146119952202
    C 1018.67424935102,342.159474432468 1018.94302600622,342.178903996944 1019.17630255222,342.20440864563
    C 1019.17630255222,342.20440864563 1019.17630255222,347.997041583061 1019.17630255222,347.997041583061
    C 1019.17630255222,347.997041583061 1018.65238183737,347.997041583061 1018.65238183737,347.997041583061
    C 1017.05148607492,347.997041583061 1015.47986233234,348.127026975155 1013.93764901161,348.385793447495
    C 1012.39467447996,348.645175457001 1010.94719731808,349.040644705296 1009.5939027071,349.571532130241
    C 1008.24060809612,350.103061854839 1007.01824176311,350.757270812988 1005.92687290907,351.534828066826
    C 1004.83543485403,352.312358558178 1003.92551100254,353.232640147209 1003.19841617346,354.295057296753
    C 1003.19841617346,354.295057296753 1003.19841617346,380.031388819218 1003.19841617346,380.031388819218
    C 1003.19841617346,380.031388819218 996.431804716587,380.031388819218 996.431804716587,380.031388819218
    C 996.431804716587,380.031388819218 996.431804716587,343.098570048809 996.431804716587,343.098570048809
    C 996.431804716587,343.098570048809 1001.6704582572,343.098570048809 1001.6704582572,343.098570048809
    C 1001.6704582572,343.098570048809 1002.98008704185,348.96894800663 1002.98008704185,348.96894800663
    C 1002.98008704185,348.96894800663 1003.11108452082,348.96894800663 1003.11108452082,348.96894800663
    C 1003.78025811911,348.010396063328 1004.60215830803,347.116234660149 1005.5776154995,346.286463797092
    C 1006.55238068104,345.457308471203 1007.65122324228,344.731402814388 1008.87358957529,344.109389126301
    C 1010.0959559083,343.487348675728 1011.43423390388,343.001395463943 1012.88987678289,342.651502728462
    Z
    M 984.018738269806,300.83260345459
    C 982.426285028458,301.196947932243 980.736604392529,301.488418161869 978.951841592789,301.707040905952
    C 977.165971577168,301.92563688755 975.380101561546,302.034934878349 973.595407962799,302.034934878349
    C 968.96281671524,302.034934878349 964.583570301533,301.330171585083 960.457668721676,299.921769022942
    C 956.331697940826,298.5133664608 952.723834991455,296.35122525692 949.636155903339,293.436496198177
    C 946.547369599342,290.521767139435 944.110041439533,286.830551326275 942.325347840786,282.360547184944
    C 940.539477825165,277.891667068005 939.647131025791,272.596200823784 939.647131025791,266.475272476673
    C 939.647131025791,261.909645974636 940.117628574371,257.803959548473 941.058623671532,254.160568296909
    C 941.999618768692,250.51715028286 943.290078878403,247.310950994492 944.931180417538,244.541970431805
    C 946.571174740791,241.772989869118 948.489357054234,239.417302370071 950.685727357864,237.473757147789
    C 952.880990445614,235.531362712383 955.221091210842,233.939663887024 957.706998467445,232.700908720493
    C 960.19186770916,231.462126791477 962.76150816679,230.563817203045 965.415989041328,230.004775643349
    C 968.069293498993,229.446884870529 970.651390135288,229.166788697243 973.16110253334,229.166788697243
    C 976.490777492523,229.166788697243 979.67568397522,229.519732356071 982.71582198143,230.223371624947
    C 985.75595998764,230.928161680698 988.361861765385,231.911870360374 990.533388912678,233.174551188946
    C 990.533388912678,233.174551188946 990.533388912678,242.574526309967 990.533388912678,242.574526309967
    C 987.493181705475,241.408645391464 984.694001555443,240.534234702587 982.136748075485,239.95126748085
    C 979.578456580639,239.368327021599 976.972624003887,239.076856791973 974.31925034523,239.076856791973
    C 971.520000994205,239.076856791973 968.745664000511,239.539125204086 965.995062947273,240.461360454559
    C 963.244461894035,241.384719729424 960.78339779377,242.902447044849 958.611870646477,245.015612900257
    C 956.440274298191,247.128778755665 954.690665602684,249.922835767269 953.363944172859,253.395455598831
    C 952.036184728146,256.869199454784 951.373377621174,261.180957019329 951.373377621174,266.329550743103
    C 951.373377621174,270.070865929127 951.867680311203,273.519586861134 952.857254505157,276.676837563515
    C 953.845790684223,279.835212290287 955.318387806416,282.567769110203 957.272762238979,284.874481260777
    C 959.227136671543,287.182370960712 961.675744593143,288.980167686939 964.619762420654,290.26672065258
    C 967.562603831291,291.554451167583 970.96473222971,292.197741031647 974.825940012932,292.197741031647
    C 977.624082148075,292.197741031647 980.447067439556,291.894869983196 983.294895887375,291.286879837513
    C 986.141686320305,290.680040478706 988.916023313999,289.81812787056 991.619152486324,288.700071513653
    C 991.619152486324,288.700071513653 991.619152486324,298.100046634674 991.619152486324,298.100046634674
    C 990.79801350832,298.586213946342 989.724706113338,299.072381258011 988.398053884506,299.557424545288
    C 987.0702252388,300.043591856956 985.611260712147,300.468285739422 984.018738269806,300.83260345459
    Z
    M 910.693574130535,255.690793693066
    C 910.693574130535,249.715613842011 909.546775281429,245.416381120682 907.255322813988,242.793122291565
    C 904.962832331657,240.169890224934 901.62070119381,238.858260810375 897.230105817318,238.858260810375
    C 893.368828833103,238.858260810375 889.629760801792,239.939893424511 886.010548889637,242.100883841515
    C 882.391267776489,244.263025045395 879.278745532036,247.238103508949 876.672912955284,251.027243256569
    C 876.672912955284,251.027243256569 876.672912955284,300.213239252567 876.672912955284,300.213239252567
    C 876.672912955284,300.213239252567 865.453356027603,300.213239252567 865.453356027603,300.213239252567
    C 865.453356027603,300.213239252567 865.453356027603,230.988484323025 865.453356027603,230.988484323025
    C 865.453356027603,230.988484323025 874.139464616776,230.988484323025 874.139464616776,230.988484323025
    C 874.139464616776,230.988484323025 876.310991764069,240.607082188129 876.310991764069,240.607082188129
    C 876.310991764069,240.607082188129 876.528144478798,240.607082188129 876.528144478798,240.607082188129
    C 877.78248167038,239.003982543945 879.170169174671,237.510207653046 880.690238177776,236.125703990459
    C 882.210307180882,234.741200327873 883.911405980587,233.527494847775 885.793396174908,232.48228597641
    C 887.675386369228,231.438227891922 889.738337159157,230.624166607857 891.982248544693,230.04119938612
    C 894.226159930229,229.458258926868 896.67476785183,229.166788697243 899.329248726368,229.166788697243
    C 902.465506911278,229.166788697243 905.409524738789,229.604007422924 908.160125792027,230.478418111801
    C 910.910726845264,231.352828800678 913.299475908279,232.762382149696 915.326234579086,234.704776585102
    C 917.352993249893,236.648295044899 918.956726253033,239.186154782772 920.139786422253,242.319479823112
    C 921.321670174599,245.452831625938 921.913200259209,249.303444802761 921.913200259209,253.869098067284
    C 921.913200259209,253.869098067284 921.913200259209,300.213239252567 921.913200259209,300.213239252567
    C 921.913200259209,300.213239252567 910.693574130535,300.213239252567 910.693574130535,300.213239252567
    C 910.693574130535,300.213239252567 910.693574130535,255.690793693066 910.693574130535,255.690793693066
    Z
    M 836.716675043106,176.09691375494
    C 836.716675043106,176.09691375494 850.846341311932,140.828748345375 850.846341311932,140.828748345375
    C 850.846341311932,140.828748345375 824.764348804951,72.9884970784187 824.764348804951,72.9884970784187
    C 824.764348804951,72.9884970784187 835.55299115181,72.9884970784187 835.55299115181,72.9884970784187
    C 835.55299115181,72.9884970784187 856.090600132942,127.275262236595 856.090600132942,127.275262236595
    C 856.090600132942,127.275262236595 856.51362580061,127.275262236595 856.51362580061,127.275262236595
    C 856.51362580061,127.275262236595 877.593908965588,72.9884970784187 877.593908965588,72.9884970784187
    C 877.593908965588,72.9884970784187 888.382551312447,72.9884970784187 888.382551312447,72.9884970784187
    C 888.382551312447,72.9884970784187 847.435701191425,176.09691375494 847.435701191425,176.09691375494
    C 847.435701191425,176.09691375494 836.716675043106,176.09691375494 836.716675043106,176.09691375494
    Z
    M 838.473411440849,237.182286918163
    C 840.927693843842,239.95126748085 842.865114033222,243.521811246872 844.285672008991,247.893918216228
    C 845.706160783768,252.2659984231 846.416439771652,257.512489318848 846.416439771652,263.633417665958
    C 846.416439771652,264.216384887695 846.416439771652,264.715050280094 846.416439771652,265.127219319344
    C 846.416439771652,265.540512382984 846.391596615314,266.475272476673 846.344055533409,267.932650387287
    C 846.344055533409,267.932650387287 798.859926044941,267.932650387287 798.859926044941,267.932650387287
    C 798.859926044941,272.353705942631 799.52266395092,276.106395184994 800.850492596626,279.190771639347
    C 802.177144825459,282.276298880577 803.986750781536,284.777708113194 806.279310464859,286.696203649044
    C 808.570693731308,288.615823209286 811.261366724968,290.011700928211 814.350153028965,290.886111617088
    C 817.437832117081,291.760522305965 820.767507076263,292.197741031647 824.339177906513,292.197741031647
    C 828.05457919836,292.197741031647 831.444182217121,291.894869983196 834.509232580662,291.286879837513
    C 837.573106527328,290.680040478706 840.625700712204,289.81812787056 843.665838718414,288.700071513653
    C 843.665838718414,288.700071513653 843.665838718414,298.100046634674 843.665838718414,298.100046634674
    C 841.204774618149,299.314902901649 838.164636611938,300.273588657379 834.545424699783,300.978351950645
    C 830.926212787628,301.681991219521 827.041199862957,302.034934878349 822.891493141651,302.034934878349
    C 817.96936494112,302.034934878349 813.348122656345,301.403045833111 809.029911518097,300.140365004539
    C 804.710593163967,298.877710938454 800.971455931664,296.837392568588 797.813745439053,294.019436657429
    C 794.655965745449,291.202631533146 792.182445466518,287.522789776325 790.394291818142,282.979911386967
    C 788.606207370758,278.438183784485 787.712684154511,272.960545301437 787.712684154511,266.548146724701
    C 787.712684154511,260.233672082424 788.579080581665,254.756033599377 790.311735033989,250.116382062435
    C 792.044458687305,245.47788131237 794.355079829693,241.603342473507 797.243667662144,238.493916332722
    C 800.132255494595,235.385640978813 803.452934324741,233.053852379322 807.207849383354,231.498577296734
    C 810.962764441967,229.944426238537 814.886253118515,229.166788697243 818.978246212006,229.166788697243
    C 822.828174233437,229.166788697243 826.427041053772,229.811229348183 829.772563040257,231.097809076309
    C 833.118085026741,232.385512828827 836.017952620983,234.413306355476 838.473411440849,237.182286918163
    Z
    M 818.420624613762,238.858260810375
    C 815.830639064312,238.858260810375 813.425004959106,239.368327021599 811.20143866539,240.388486206532
    C 808.977872371674,241.408645391464 807.035954117775,242.793122291565 805.375614702702,244.541970431805
    C 803.714168071747,246.290818572044 802.370561599731,248.34363502264 801.344726085663,250.699322521687
    C 800.317783355713,253.05616080761 799.683279454708,255.570121645927 799.438999950886,258.241178274155
    C 799.438999950886,258.241178274155 834.617808938026,258.241178274155 834.617808938026,258.241178274155
    C 834.617808938026,255.521146297455 834.262669444084,252.983286559582 833.554674088955,250.626448273659
    C 832.846609532833,248.270760774612 831.808387041092,246.217944324017 830.439868211746,244.469096183777
    C 829.071349382401,242.720274806023 827.386166810989,241.348295986652 825.383144080639,240.35206246376
    C 823.379014134407,239.35695296526 821.058151245117,238.858260810375 818.420624613762,238.858260810375
    Z
    M 802.700027525425,170.121733903885
    C 799.683141052723,172.744992733002 796.052787780762,174.699912011623 791.806960880756,175.987615764141
    C 787.561133980751,177.274195492268 782.86287099123,177.918636143208 777.712102711201,177.918636143208
    C 773.349879741669,177.918636143208 769.452064633369,177.517841160297 766.018657386303,176.716304719448
    C 762.584142923355,175.914768278599 759.893469929695,174.954958498478 757.944562375546,173.837999403477
    C 757.944562375546,173.837999403477 757.944562375546,164.2922757864 757.944562375546,164.2922757864
    C 759.521514594555,164.97201615572 761.052794158459,165.542431771755 762.538401067257,166.004700183868
    C 764.022969961166,166.465817809105 765.55424952507,166.854061186314 767.132308959961,167.170581102371
    C 768.70926117897,167.485950231552 770.322128713131,167.717097818851 771.969804346561,167.862819552422
    C 773.616372764111,168.008568048477 775.438019692898,168.081415534019 777.433707118034,168.081415534019
    C 785.182626664639,168.081415534019 791.12180185318,166.18684566021 795.25233989954,162.39770591259
    C 799.381839931011,158.60856616497 801.447143554688,152.826932609081 801.447143554688,145.05508005619
    C 801.447143554688,145.05508005619 801.447143554688,135.800826668739 801.447143554688,135.800826668739
    C 801.447143554688,135.800826668739 801.238294959068,135.800826668739 801.238294959068,135.800826668739
    C 798.871759414673,138.522009432316 796.122403979301,140.573701858521 792.990228652954,141.958205521107
    C 789.858053326607,143.342682421207 786.273441910744,144.034947633743 782.236394405365,144.034947633743
    C 780.379939377308,144.034947633743 778.384251952171,143.81632488966 776.250439345837,143.379132926464
    C 774.115588724613,142.941914200783 771.980668902397,142.201851189137 769.846856296062,141.156642317772
    C 767.712005674839,140.112584233284 765.670645594597,138.728080570698 763.721738040447,137.003158092499
    C 761.772761285305,135.279386401176 760.055538654327,133.117245197296 758.570969760418,130.517885267735
    C 757.08536285162,127.919702887535 755.891230523586,124.846700489521 754.986358344555,121.30008238554
    C 754.081555366516,117.75458830595 753.629119277,113.648928642273 753.629119277,108.985351443291
    C 753.629119277,102.525155067444 754.464375257492,96.9256937503815 756.134818017483,92.1892423033714
    C 757.805329978466,87.4528176188469 760.00875878334,83.5304809808731 762.747249662876,80.4210548400879
    C 765.48463332653,77.3127794861794 768.616808652878,74.9923649430275 772.143775641918,73.4621395468712
    C 775.66970461607,71.9319141507149 779.312998473644,71.1668014526367 783.071650385857,71.1668014526367
    C 785.94826644659,71.2157500386238 788.454034388065,71.6039934158325 790.588885009289,72.3326823711395
    C 792.722697615623,73.0613713264465 794.556316316128,73.9722057580948 796.087595880032,75.0652391910553
    C 797.618944644928,76.1582726240158 798.837020516396,77.2399052381516 799.741823494434,78.3078622221947
    C 800.646695673466,79.3769699931145 801.261200487614,80.2274817824364 801.586375951767,80.8582468032837
    C 801.586375951767,80.8582468032837 801.864771544933,80.8582468032837 801.864771544933,80.8582468032837
    C 801.864771544933,80.8582468032837 804.092074692249,72.9884970784187 804.092074692249,72.9884970784187
    C 804.092074692249,72.9884970784187 812.235785901546,72.9884970784187 812.235785901546,72.9884970784187
    C 812.235785901546,72.9884970784187 812.235785901546,146.293861985207 812.235785901546,146.293861985207
    C 812.235785901546,151.637126028538 811.400529921055,156.288178384304 809.730017960072,160.248089551926
    C 808.059505999088,164.206903457642 805.715806782246,167.498475074768 802.700027525425,170.121733903885
    Z
    M 801.447143554688,90.3311229348183
    C 800.843572497368,89.4566854834557 800.008316516876,88.4616027474403 798.941375613213,87.3435196280479
    C 797.87339669466,86.2265872955322 796.63248449564,85.1939032673836 795.217601001263,84.2466183304787
    C 793.801541090012,83.2993333935738 792.189780771732,82.4977969527245 790.380105614662,81.8419822454453
    C 788.570361256599,81.186167538166 786.597510159016,80.8582468032837 784.463766753674,80.8582468032837
    C 781.261975228786,80.8582468032837 778.443003594875,81.5265863537788 776.00685185194,82.862141430378
    C 773.570700109005,84.1987937688828 771.528232812881,86.0569398999214 769.881664395332,88.4365530610085
    C 768.233988761902,90.8172902464867 766.993076562881,93.6716699004173 766.15782058239,96.9985412359238
    C 765.322633802891,100.326563358307 764.905005812645,104.006431877613 764.905005812645,108.038066506386
    C 764.905005812645,113.479281246662 765.531413197517,117.924235701561 766.784297168255,121.372956633568
    C 768.037181138992,124.822801589966 769.626105129719,127.506383061409 771.552176356316,129.42487859726
    C 773.477140367031,131.344498157501 775.577252089977,132.65612757206 777.85133510828,133.359766840935
    C 780.124380111694,134.064530134201 782.282067060471,134.416349768639 784.324534356594,134.416349768639
    C 787.665558278561,134.416349768639 790.797733604908,133.712710499763 793.721060335636,132.303157150745
    C 796.644456267357,130.894754588604 799.219840407372,128.976285815239 801.447143554688,126.546573281288
    C 801.447143554688,126.546573281288 801.447143554688,90.3311229348183 801.447143554688,90.3311229348183
    Z
    M 737.620230853558,82.8985651731491
    C 735.160135567188,83.3847324848175 732.852351665497,84.1259462833405 730.694595515728,85.1210557818413
    C 728.536908566952,86.1172893047333 726.58793181181,87.3435196280479 724.847872853279,88.8008707761765
    C 723.107744693756,90.2582486867905 721.656945884228,91.9831711649895 720.497621655464,93.9745141863823
    C 720.497621655464,93.9745141863823 720.497621655464,142.213225245476 720.497621655464,142.213225245476
    C 720.497621655464,142.213225245476 709.708979308605,142.213225245476 709.708979308605,142.213225245476
    C 709.708979308605,142.213225245476 709.708979308605,72.9884970784187 709.708979308605,72.9884970784187
    C 709.708979308605,72.9884970784187 718.061469912529,72.9884970784187 718.061469912529,72.9884970784187
    C 718.061469912529,72.9884970784187 720.149609863758,83.9915986061096 720.149609863758,83.9915986061096
    C 720.149609863758,83.9915986061096 720.358389258385,83.9915986061096 720.358389258385,83.9915986061096
    C 721.425260961056,82.194925904274 722.735789358616,80.5189520120621 724.291012465954,78.9636769294739
    C 725.84512835741,77.4095526337624 727.597228288651,76.0489478707314 729.5461358428,74.8830669522285
    C 731.49504339695,73.7171860337257 733.628856003284,72.806324839592 735.949718892574,72.1505101323128
    C 738.269474565983,71.4946954250336 740.705626308918,71.1668014526367 743.25817412138,71.1668014526367
    C 743.721474766731,71.1668014526367 744.197785198689,71.1793262958527 744.685029387474,71.2032251954079
    C 745.17227357626,71.2282748818398 745.600766122341,71.2646986246109 745.972721457481,71.3125231862068
    C 745.972721457481,71.3125231862068 745.972721457481,82.1698762178421 745.972721457481,82.1698762178421
    C 745.972721457481,82.1698762178421 745.13746547699,82.1698762178421 745.13746547699,82.1698762178421
    C 742.584917664528,82.1698762178421 740.079218924046,82.4135218858719 737.620230853558,82.8985651731491
    Z
    M 714.098121464252,230.004775643349
    C 716.751425921917,229.446884870529 719.333522558212,229.166788697243 721.843234956265,229.166788697243
    C 725.172909915447,229.166788697243 728.357816398144,229.519732356071 731.397954404354,230.223371624947
    C 734.438161611557,230.928161680698 737.043994188309,231.911870360374 739.215521335602,233.174551188946
    C 739.215521335602,233.174551188946 739.215521335602,242.574526309967 739.215521335602,242.574526309967
    C 736.175383329391,241.408645391464 733.376133978367,240.534234702587 730.818880498409,239.95126748085
    C 728.260589003563,239.368327021599 725.654756426811,239.076856791973 723.001382768154,239.076856791973
    C 720.20213341713,239.076856791973 717.427796423435,239.539125204086 714.677195370197,240.461360454559
    C 711.926594316959,241.384719729424 709.465530216694,242.902447044849 707.294003069401,245.015612900257
    C 705.122475922108,247.128778755665 703.372798025608,249.922835767269 702.046076595783,253.395455598831
    C 700.71831715107,256.869199454784 700.055510044098,261.180957019329 700.055510044098,266.329550743103
    C 700.055510044098,270.070865929127 700.549812734127,273.519586861134 701.539386928082,276.676837563515
    C 702.527923107147,279.835212290287 704.00052022934,282.567769110203 705.954894661903,284.874481260777
    C 707.909269094467,287.182370960712 710.357877016068,288.980167686939 713.301894843578,290.26672065258
    C 716.244736254215,291.554451167583 719.646795451641,292.197741031647 723.508072435856,292.197741031647
    C 726.306214570999,292.197741031647 729.12919986248,291.894869983196 731.977028310299,291.286879837513
    C 734.823818743229,290.680040478706 737.598155736923,289.81812787056 740.301284909248,288.700071513653
    C 740.301284909248,288.700071513653 740.301284909248,298.100046634674 740.301284909248,298.100046634674
    C 739.480145931244,298.586213946342 738.406838536263,299.072381258011 737.08018630743,299.557424545288
    C 735.752357661724,300.043591856956 734.293393135071,300.468285739422 732.700939893723,300.83260345459
    C 731.108417451382,301.196947932243 729.418736815453,301.488418161869 727.633974015713,301.707040905952
    C 725.848104000092,301.92563688755 724.062303185463,302.034934878349 722.277540385723,302.034934878349
    C 717.644949138165,302.034934878349 713.265702724457,301.330171585083 709.1398011446,299.921769022942
    C 705.013899564743,298.5133664608 701.405967414379,296.35122525692 698.318288326263,293.436496198177
    C 695.229502022266,290.521767139435 692.79224306345,286.830551326275 691.00748026371,282.360547184944
    C 689.221610248089,277.891667068005 688.329263448715,272.596200823784 688.329263448715,266.475272476673
    C 688.329263448715,261.909645974636 688.799760997295,257.803959548473 689.740756094456,254.160568296909
    C 690.681751191616,250.51715028286 691.972211301327,247.310950994492 693.613312840462,244.541970431805
    C 695.253307163715,241.772989869118 697.171489477158,239.417302370071 699.367859780788,237.473757147789
    C 701.56319206953,235.531362712383 703.903223633766,233.939663887024 706.389200091362,232.700908720493
    C 708.874000132084,231.462126791477 711.443640589714,230.563817203045 714.098121464252,230.004775643349
    Z
    M 645.673356413841,109.932636380196
    C 645.673356413841,114.353691935539 646.310697555542,118.106407940388 647.587455868721,121.190784394741
    C 648.863176167011,124.276284873486 650.603304326534,126.777720868587 652.807771146297,128.696189641953
    C 655.011199951172,130.615809202194 657.598486661911,132.01168692112 660.568662464619,132.886124372482
    C 663.537661850452,133.760535061359 666.73945337534,134.197727024555 670.17403703928,134.197727024555
    C 673.746676683426,134.197727024555 677.006112635136,133.89488273859 679.953382909298,133.286892592907
    C 682.899615168571,132.680026471615 685.834913671017,131.818140625954 688.758309602737,130.700057506561
    C 688.758309602737,130.700057506561 688.758309602737,140.100059390068 688.758309602737,140.100059390068
    C 686.391774058342,141.314915657043 683.468378126621,142.273574650288 679.988191008568,142.978364706039
    C 676.508003890514,143.681977212429 672.772188305855,144.034947633743 668.781920671463,144.034947633743
    C 664.048849582672,144.034947633743 659.605038642883,143.403031826019 655.452702283859,142.140377759933
    C 651.299327909946,140.877696931362 647.703851938248,138.837378561497 644.667381584644,136.019449412823
    C 641.630911231041,133.20264428854 639.252403914928,129.522802531719 637.532966852188,124.979924142361
    C 635.813529789448,120.438196539879 634.954330265522,114.960558056831 634.954330265522,108.548159480095
    C 634.954330265522,102.233684837818 635.787371814251,96.7560463547707 637.453524112701,92.1163948178291
    C 639.119676411152,87.4778673052788 641.341581881046,83.6033284664154 644.119240522385,80.4939023256302
    C 646.89682996273,77.3856269717216 650.089971363544,75.0538383722305 653.700671553612,73.4985632896423
    C 657.311371743679,71.9444389939308 661.084140658379,71.1668014526367 665.01897829771,71.1668014526367
    C 668.721023797989,71.1668014526367 672.181627035141,71.8112153410912 675.398642778397,73.0977950692177
    C 678.615658521652,74.3855255842209 681.404181718826,76.4132923483849 683.7653195858,79.1822996735573
    C 686.125350236893,81.9512802362442 687.988310158253,85.5218240022659 689.354268550873,89.893904209137
    C 690.720296144485,94.265984416008 691.403240740299,99.5125020742416 691.403240740299,105.633430421352
    C 691.403240740299,106.216370880604 691.403240740299,106.715063035488 691.403240740299,107.127232074738
    C 691.403240740299,107.540525138378 691.379366397858,108.475285232067 691.333693742752,109.932636380196
    C 691.333693742752,109.932636380196 645.673356413841,109.932636380196 645.673356413841,109.932636380196
    Z
    M 679.035500943661,92.6264610290527
    C 678.354701578617,90.2707735300064 677.356269657612,88.217930316925 676.04034358263,86.4691089391708
    C 674.724417507648,84.7202607989311 673.103937864304,83.3483087420464 671.177866637707,82.3520484566689
    C 669.250688195229,81.356938958168 667.018956184387,80.8582468032837 664.482809007168,80.8582468032837
    C 661.992265284061,80.8582468032837 659.679014503956,81.3683397769928 657.540842235088,82.3884989619255
    C 655.402739167213,83.4086313843727 653.535350382328,84.7931350469589 651.938814282417,86.5419831871986
    C 650.341170966625,88.2908045649529 649.049188435078,90.3436477780342 648.062728285789,92.6993352770805
    C 647.075230121613,95.056146800518 646.465084969997,97.5701076388359 646.230216801167,100.241191029549
    C 646.230216801167,100.241191029549 680.057807207108,100.241191029549 680.057807207108,100.241191029549
    C 680.057807207108,97.5211590528488 679.716300308704,94.9832993149757 679.035500943661,92.6264610290527
    Z
    M 648.011450350285,192.878464102745
    C 649.459065914154,192.878464102745 650.966747939587,192.939937531948 652.535465240479,193.060636341572
    C 654.103006124496,193.182459175587 655.647987484932,193.352106571198 657.168056488037,193.570702552795
    C 658.688125491142,193.789298534393 660.147090017796,194.044345021248 661.547302901745,194.335815250874
    C 662.94633936882,194.627285480499 664.176871418953,194.943805396557 665.238899052143,195.283100187778
    C 665.238899052143,195.283100187778 665.238899052143,204.901698052883 665.238899052143,204.901698052883
    C 662.488297998905,204.221984446049 659.846273303032,203.687992572784 657.312824964523,203.298598408699
    C 654.779376626015,202.91035503149 652.161087870598,202.715657949448 649.459065914154,202.715657949448
    C 642.268183171749,202.715657949448 636.803103983402,204.39163184166 633.064035952091,207.743552863598
    C 629.323791503906,211.095500648022 627.454257488251,216.221319496632 627.454257488251,223.11873459816
    C 627.454257488251,223.11873459816 627.454257488251,230.988484323025 627.454257488251,230.988484323025
    C 627.454257488251,230.988484323025 669.871490299702,230.988484323025 669.871490299702,230.988484323025
    C 669.871490299702,230.988484323025 669.871490299702,300.213239252567 669.871490299702,300.213239252567
    C 669.871490299702,300.213239252567 658.651933372021,300.213239252567 658.651933372021,300.213239252567
    C 658.651933372021,300.213239252567 658.651933372021,240.679956436157 658.651933372021,240.679956436157
    C 658.651933372021,240.679956436157 627.454257488251,240.679956436157 627.454257488251,240.679956436157
    C 627.454257488251,240.679956436157 627.454257488251,300.213239252567 627.454257488251,300.213239252567
    C 627.454257488251,300.213239252567 616.234631359577,300.213239252567 616.234631359577,300.213239252567
    C 616.234631359577,300.213239252567 616.234631359577,240.679956436157 616.234631359577,240.679956436157
    C 616.234631359577,240.679956436157 585.036955475807,240.679956436157 585.036955475807,240.679956436157
    C 585.036955475807,240.679956436157 585.036955475807,300.213239252567 585.036955475807,300.213239252567
    C 585.036955475807,300.213239252567 573.817398548126,300.213239252567 573.817398548126,300.213239252567
    C 573.817398548126,300.213239252567 573.817398548126,240.679956436157 573.817398548126,240.679956436157
    C 573.817398548126,240.679956436157 561.729161560535,240.679956436157 561.729161560535,240.679956436157
    C 561.729161560535,240.679956436157 561.729161560535,230.988484323025 561.729161560535,230.988484323025
    C 561.729161560535,230.988484323025 573.817398548126,230.988484323025 573.817398548126,230.988484323025
    C 573.817398548126,230.988484323025 573.817398548126,220.131131291389 573.817398548126,220.131131291389
    C 573.817398548126,215.321859121323 574.480136454105,211.204798638821 575.807965099812,207.780003368855
    C 577.134617328644,204.355181336403 578.931767106056,201.53837621212 581.200590848923,199.327286422253
    C 583.468238174915,197.117347419262 586.134068012238,195.490322113037 589.199049174786,194.445113241673
    C 592.262992322445,193.401055157185 595.556475162506,192.878464102745 599.079566895962,192.878464102745
    C 600.76814031601,192.878464102745 602.445433974266,192.976361274719 604.110271453857,193.169934332371
    C 605.775108933449,193.364631414413 607.137953281403,193.583227396011 608.199980914593,193.82574903965
    C 608.199980914593,193.82574903965 608.199980914593,203.371472656727 608.199980914593,203.371472656727
    C 606.654999554157,203.128951013088 605.255963087082,202.959303617477 604.001695096493,202.861379683018
    C 602.74625068903,202.764606535435 601.636751174927,202.715657949448 600.67202013731,202.715657949448
    C 598.210956037045,202.715657949448 596.00323677063,203.032177865505 594.048793137074,203.662942886353
    C 592.09441870451,204.294858694077 590.453386366367,205.302466273308 589.126664936543,206.686969935894
    C 587.798905491829,208.07147359848 586.785526156425,209.893169224262 586.086526930332,212.152083575726
    C 585.386420488358,214.410997927189 585.036955475807,217.143554747105 585.036955475807,220.349754035473
    C 585.036955475807,220.349754035473 585.036955475807,230.988484323025 585.036955475807,230.988484323025
    C 585.036955475807,230.988484323025 616.234631359577,230.988484323025 616.234631359577,230.988484323025
    C 616.234631359577,230.988484323025 616.234631359577,222.900138616562 616.234631359577,222.900138616562
    C 616.234631359577,217.41109931469 617.139434337616,212.760073721409 618.949040293694,208.945884287357
    C 620.758646249771,205.132818877697 623.147395312786,202.035944342613 626.115149080753,199.65518039465
    C 629.082902848721,197.275593996048 632.472505867481,195.550671517849 636.285134553909,194.481563746929
    C 640.096586823463,193.413580000401 644.005404889584,192.878464102745 648.011450350285,192.878464102745
    Z
    M 607.112902522087,97.6908064484596
    C 607.112902522087,91.715599834919 606.010115504265,87.4163938760757 603.80668669939,84.7931350469589
    C 601.602219879627,82.1698762178421 598.388456583023,80.8582468032837 594.166573226452,80.8582468032837
    C 590.453593969345,80.8582468032837 586.858117997646,81.9398794174194 583.377930879593,84.1008965969086
    C 579.897674560547,86.2630110383034 576.904731631279,89.2380895018578 574.398963689804,93.0272292494774
    C 574.398963689804,93.0272292494774 574.398963689804,142.213225245476 574.398963689804,142.213225245476
    C 574.398963689804,142.213225245476 563.610321342945,142.213225245476 563.610321342945,142.213225245476
    C 563.610321342945,142.213225245476 563.610321342945,72.9884970784187 563.610321342945,72.9884970784187
    C 563.610321342945,72.9884970784187 571.962811946869,72.9884970784187 571.962811946869,72.9884970784187
    C 571.962811946869,72.9884970784187 574.050951898098,82.6070949435234 574.050951898098,82.6070949435234
    C 574.050951898098,82.6070949435234 574.259731292725,82.6070949435234 574.259731292725,82.6070949435234
    C 575.465904593468,81.0039952993393 576.800307333469,79.5101936459541 578.261970698833,78.1256899833679
    C 579.72370326519,76.7412130832672 581.359407126904,75.5275076031685 583.169082283974,74.4822987318039
    C 584.978826642036,73.4382138848305 586.962542295456,72.6241526007652 589.120229244232,72.0412121415138
    C 591.277985394001,71.4582716822624 593.632549166679,71.1668014526367 596.185096979141,71.1668014526367
    C 599.200876235962,71.1668014526367 602.03181964159,71.6039934158325 604.676750779152,72.4784308671951
    C 607.321751117706,73.3528415560722 609.618670463562,74.7623681426048 611.567578017712,76.7047625780106
    C 613.516485571861,78.648307800293 615.058629691601,81.186167538166 616.196224808693,84.3194925785065
    C 617.332781910896,87.4528176188469 617.901544868946,91.3034575581551 617.901544868946,95.8690840601921
    C 617.901544868946,95.8690840601921 617.901544868946,142.213225245476 617.901544868946,142.213225245476
    C 617.901544868946,142.213225245476 607.112902522087,142.213225245476 607.112902522087,142.213225245476
    C 607.112902522087,142.213225245476 607.112902522087,97.6908064484596 607.112902522087,97.6908064484596
    Z
    M 490.141219139099,202.715657949448
    C 490.141219139099,202.715657949448 548.917289793491,202.715657949448 548.917289793491,202.715657949448
    C 548.917289793491,202.715657949448 548.917289793491,213.427262485027 548.917289793491,213.427262485027
    C 548.917289793491,213.427262485027 501.939849972725,213.427262485027 501.939849972725,213.427262485027
    C 501.939849972725,213.427262485027 501.939849972725,244.906314909458 501.939849972725,244.906314909458
    C 501.939849972725,244.906314909458 543.705624639988,244.906314909458 543.705624639988,244.906314909458
    C 543.705624639988,244.906314909458 543.705624639988,255.617919445038 543.705624639988,255.617919445038
    C 543.705624639988,255.617919445038 501.939849972725,255.617919445038 501.939849972725,255.617919445038
    C 501.939849972725,255.617919445038 501.939849972725,289.501607954502 501.939849972725,289.501607954502
    C 501.939849972725,289.501607954502 551.595575809479,289.501607954502 551.595575809479,289.501607954502
    C 551.595575809479,289.501607954502 551.595575809479,300.213239252567 551.595575809479,300.213239252567
    C 551.595575809479,300.213239252567 490.141219139099,300.213239252567 490.141219139099,300.213239252567
    C 490.141219139099,300.213239252567 490.141219139099,202.715657949448 490.141219139099,202.715657949448
    Z
    M 486.419520556927,44.7156439423561
    C 486.419520556927,44.7156439423561 542.938047230244,44.7156439423561 542.938047230244,44.7156439423561
    C 542.938047230244,44.7156439423561 542.938047230244,55.4272752404213 542.938047230244,55.4272752404213
    C 542.938047230244,55.4272752404213 497.765023291111,55.4272752404213 497.765023291111,55.4272752404213
    C 497.765023291111,55.4272752404213 497.765023291111,86.9063009023666 497.765023291111,86.9063009023666
    C 497.765023291111,86.9063009023666 537.926580548286,86.9063009023666 537.926580548286,86.9063009023666
    C 537.926580548286,86.9063009023666 537.926580548286,97.6179322004318 537.926580548286,97.6179322004318
    C 537.926580548286,97.6179322004318 497.765023291111,97.6179322004318 497.765023291111,97.6179322004318
    C 497.765023291111,97.6179322004318 497.765023291111,131.501620709896 497.765023291111,131.501620709896
    C 497.765023291111,131.501620709896 545.513431370258,131.501620709896 545.513431370258,131.501620709896
    C 545.513431370258,131.501620709896 545.513431370258,142.213225245476 545.513431370258,142.213225245476
    C 545.513431370258,142.213225245476 486.419520556927,142.213225245476 486.419520556927,142.213225245476
    C 486.419520556927,142.213225245476 486.419520556927,44.7156439423561 486.419520556927,44.7156439423561
    Z
    M 463.458423614502,230.514895379543
    C 463.458423614502,230.514895379543 437.560990154743,230.425348103046 437.560990154743,230.425348103046
    C 434.563687562943,350.727885603905 338.105392813683,447.311073064804 219.552120745182,447.311073064804
    C 99.1094539761543,447.311073064804 1.4712131023407,347.624748647213 1.4712131023407,224.655516803265
    C 1.4712131023407,101.686311721802 99.1094539761543,1.99998730421066 219.552120745182,1.99998730421066
    C 326.277628362179,1.99998730421066 409.358194828033,80.2727371454239 428.205223560333,183.659403383732
    C 428.248128175735,183.894431531429 428.302520155907,184.130556941032 428.348192811012,184.365852713585
    C 428.348192811012,184.365852713585 402.117764174938,185.520493388176 402.117764174938,185.520493388176
    C 384.440370619297,99.1285942196846 309.423588216305,34.2341164946556 219.553781569004,34.2341164946556
    C 116.544574856758,34.2341164946556 33.0391142964363,119.487887442112 33.0391142964363,224.65369695425
    C 33.0391142964363,329.819479703903 116.544574856758,415.07325065136 219.553781569004,415.07325065136
    C 320.707086861134,415.07325065136 403.04540348053,332.861785531044 405.979802370071,230.316130399704
    C 405.979802370071,230.316130399704 249.581061065197,229.775367617607 249.581061065197,229.775367617607
    C 249.619467616081,239.937859475613 250.624888837337,249.106258809567 252.612894952297,257.267773151398
    C 254.639999628067,265.590076506138 260.044666349888,274.974181473255 265.463934481144,280.319425940514
    C 271.790220022202,286.566673219204 276.682384192944,290.229092597961 283.99997395277,293.999980330467
    C 292.548718571663,298.409260392189 300.210998475552,300.827036857605 311.148353755474,301.342054128647
    C 319.789966106415,301.748950958252 327.516395330429,301.383776843548 334.33414632082,300.246852934361
    C 341.151828110218,299.109929025173 347.064084112644,297.757888257504 352.074097573757,296.187626183033
    C 357.083903431892,294.620629131794 361.207521378994,293.181101799011 364.447650253773,291.875734806061
    C 367.687848329544,290.570341050625 370.117287576199,289.955767333508 371.739151239395,290.032120704651
    C 372.683883190155,290.076626718044 373.513741493225,290.359773814678 374.235161840916,290.878644883633
    C 374.956374585629,291.400754213333 375.496626734734,292.15516191721 375.859170734882,293.142028570175
    C 376.21846228838,294.131999671459 376.462880194187,295.497314631939 376.586265563965,297.237705826759
    C 376.709443330765,298.981335282326 376.718024253845,301.097043573856 376.605365037918,303.591093122959
    C 376.523984670639,305.393412709236 376.384267866611,306.948928654194 376.192581117153,308.257908582687
    C 375.997641921043,309.570019721985 375.777582764626,310.737720489502 375.529151201248,311.767407119274
    C 375.280650436878,312.797093749046 374.901428997517,313.716492176056 374.39460092783,314.525762975216
    C 373.884658813477,315.334846436977 373.243926823139,316.105258107185 372.472681760788,316.830467939377
    C 371.698115050793,317.558755457401 369.4593937397,318.703012287617 365.753265380859,320.26307785511
    C 362.046998620033,321.82638168335 357.265417635441,323.300004422665 351.414542913437,324.690743744373
    C 345.560554146767,326.081322491169 338.807506084442,327.253840506077 331.158235967159,328.214908123016
    C 323.505990207195,329.172603666782 315.379510045052,329.450585603714 306.78204792738,329.045776247978
    C 291.867157995701,328.343475103378 282.432433068752,325.632595896721 271.202911198139,321.334915399551
    C 259.970206081867,317.037234902382 248.1766269207,310.540480971336 239.642760515213,302.015184164047
    C 231.108894109726,293.49315237999 224.669949352741,282.802957832813 220.329317092896,269.944600522518
    C 216.377663612366,258.251000106335 214.23257124424,244.816874682903 213.876047730446,229.651912271976
    C 213.876047730446,229.651912271976 77.4046318531036,229.180036127567 77.4046318531036,229.180036127567
    C 77.4046318531036,239.582908630371 78.4166271686554,248.945496559143 80.4437318444252,257.267773151398
    C 82.470836520195,265.590076506138 87.6449255347252,274.376173734665 92.7007500529289,280.066333115101
    C 98.5040836930275,286.597664177418 106.356735527515,292.779396891594 113.999985158443,295.999994397163
    C 121.570435345173,299.18989533186 128.041904568672,300.827036857605 138.979259848595,301.342054128647
    C 147.620802998543,301.748950958252 155.34730142355,301.383776843548 162.164983212948,300.246852934361
    C 168.982734203339,299.109929025173 174.894921004772,297.757888257504 179.904934465885,296.187626183033
    C 184.914809525013,294.620629131794 189.038358271122,293.181101799011 192.278487145901,291.875734806061
    C 195.518685221672,290.570341050625 197.948124468327,289.955767333508 199.569988131523,290.032120704651
    C 200.514789283276,290.076626718044 201.344647586346,290.359773814678 202.065998733044,290.878644883633
    C 202.787211477757,291.400754213333 203.327532827854,292.15516191721 203.690076828003,293.142028570175
    C 204.049299180508,294.131999671459 204.293717086315,295.497314631939 204.417102456093,297.237705826759
    C 204.540349423885,298.981335282326 204.548930346966,301.097043573856 204.436271131039,303.591093122959
    C 204.354821562767,305.393412709236 204.215104758739,306.948928654194 204.023418009281,308.257908582687
    C 203.828478813171,309.570019721985 203.608488857746,310.737720489502 203.359988093376,311.767407119274
    C 203.111487329006,312.797093749046 202.732265889645,313.716492176056 202.225437819958,314.525762975216
    C 201.715564906597,315.334846436977 201.074763715267,316.105258107185 200.303518652916,316.830467939377
    C 199.528951942921,317.558755457401 197.290230631828,318.703012287617 193.584102272987,320.26307785511
    C 189.877835512161,321.82638168335 185.096254527569,323.300004422665 179.245449006557,324.690743744373
    C 173.391460239887,326.081322491169 166.638412177563,327.253840506077 158.98914206028,328.214908123016
    C 151.336827099323,329.172603666782 143.21034693718,329.450585603714 134.612884819508,329.045776247978
    C 119.697994887829,328.343475103378 110.263339161873,325.632595896721 99.0337480902672,321.334915399551
    C 87.8010429739952,317.037234902382 76.0074638128281,310.540480971336 67.473597407341,302.015184164047
    C 58.9398002028465,293.49315237999 52.5007862448692,282.802957832813 48.1601539850235,269.944600522518
    C 43.8160616755486,257.089508235455 41.6475101709366,242.138297796249 41.6475101709366,225.087704181671
    C 41.6475101709366,208.878817498684 43.89322078228,194.310819089413 48.3847804069519,181.383655428886
    C 52.8762016296387,168.459810316563 61.6769070625305,156.047878026962 69.277805685997,147.101419985294
    C 76.8755902647972,138.154935181141 86.0560015439987,131.289046287537 96.8189703226089,126.503726541996
    C 107.57875585556,121.718406796455 119.618552148342,119.325760304928 132.935175955296,119.325760304928
    C 147.19120323658,119.325760304928 159.33189457655,121.685917139053 169.353997528553,126.399727523327
    C 179.37298643589,131.116749405861 187.613855838776,137.462509393692 194.070377647877,145.436953961849
    C 200.526899456978,153.414663553238 205.268413066864,162.77725148201 208.294918477535,173.52469098568
    C 210.991473555565,183.103305697441 212.486699402332,193.259963333607 212.780734419823,203.992415845394
    C 212.782741248608,204.06571829319 213.635505080223,204.1299482584 215.21079647541,204.186336815357
    C 216.322787225246,196.096626222134 218.087066531181,188.483475208282 220.553874313831,181.383655428886
    C 225.045364737511,168.459810316563 233.846070170403,156.047878026962 241.446968793869,147.101419985294
    C 249.044753372669,138.154935181141 258.225095450878,131.289046287537 268.988064229488,126.503726541996
    C 279.747918963432,121.718406796455 291.787715256214,119.325760304928 305.104339063168,119.325760304928
    C 319.360366344452,119.325760304928 331.501057684422,121.685917139053 341.523160636425,126.399727523327
    C 351.542149543762,131.116749405861 359.783018946648,137.462509393692 366.239540755749,145.436953961849
    C 372.69606256485,153.414663553238 377.437576174736,162.77725148201 380.464081585407,173.52469098568
    C 383.188386261463,183.201871931553 384.675100386143,193.474544942379 384.947129487991,204.329409062862
    C 417.965483486652,204.23662352562 447.278885543346,204.147772073746 463.458423614502,204.147772073746
    C 463.581878185272,204.147772073746 462.631748557091,203.30371004343 466.327911973,207.077461361885
    C 466.327911973,207.077461361885 466.327911973,227.585206091404 466.327911973,227.585206091404
    C 463.538004755974,230.433644473553 463.769758880138,230.832699894905 463.458423614502,230.514895379543
    Z
    M 167.667361736298,161.561405003071
    C 159.480053901672,151.298312962055 147.333065271378,146.165161192417 131.229579091072,146.165161192417
    C 122.972931861877,146.165161192417 115.731393992901,147.761356115341 109.508148729801,150.950480937958
    C 103.281789422035,154.142870783806 97.4909119606018,157.862588644028 93.2947713732719,163.132282614708
    C 89.0986999869347,168.40524160862 83.5616517663002,175.052614808083 81.2602343559265,182.055045902729
    C 78.9588169455528,189.060742020607 77.6757613420486,196.378515481949 77.4046318531036,204.005101263523
    C 77.4046318531036,204.005101263523 179.341430783272,204.005101263523 179.341430783272,204.005101263523
    C 179.745010972023,185.975642979145 175.851486325264,171.827735304832 167.667361736298,161.561405003071
    Z
    M 339.83652484417,161.561405003071
    C 331.649217009544,151.298312962055 319.50222837925,146.165161192417 303.398742198944,146.165161192417
    C 295.142094969749,146.165161192417 287.900557100773,147.761356115341 281.677311837673,150.950480937958
    C 275.450952529907,154.142870783806 269.660005867481,157.862588644028 265.463934481144,163.132282614708
    C 261.267793893814,168.40524160862 255.730814874172,175.052614808083 253.429397463799,182.055045902729
    C 251.127980053425,189.060742020607 249.844855248928,196.378515481949 249.573794960976,204.005101263523
    C 249.573794960976,204.005101263523 351.510593891144,204.005101263523 351.510593891144,204.005101263523
    C 351.914104878902,185.975642979145 348.020649433136,171.827735304832 339.83652484417,161.561405003071
    Z
    M 768.965374052525,214.884640395641
    C 768.965374052525,214.884640395641 757.745817124844,214.884640395641 757.745817124844,214.884640395641
    C 757.745817124844,214.884640395641 757.745817124844,202.278439223766 757.745817124844,202.278439223766
    C 757.745817124844,202.278439223766 768.965374052525,202.278439223766 768.965374052525,202.278439223766
    C 768.965374052525,202.278439223766 768.965374052525,214.884640395641 768.965374052525,214.884640395641
    Z
    M 769.254911005497,300.213239252567
    C 769.254911005497,300.213239252567 758.035354077816,300.213239252567 758.035354077816,300.213239252567
    C 758.035354077816,300.213239252567 758.035354077816,230.988484323025 758.035354077816,230.988484323025
    C 758.035354077816,230.988484323025 769.254911005497,230.988484323025 769.254911005497,230.988484323025
    C 769.254911005497,230.988484323025 769.254911005497,300.213239252567 769.254911005497,300.213239252567
    Z
    M 952.296242058277,347.063994288445
    C 954.013118684292,345.405683636665 955.977665662766,344.167704582214 958.189744591713,343.351288199425
    C 960.401131510735,342.534871816635 962.686217486858,342.12666362524 965.043618500233,342.12666362524
    C 966.847826778889,342.152783811092 968.419450521469,342.359925448895 969.758420526981,342.748704075813
    C 971.09676772356,343.137455940247 972.246819019318,343.623409152031 973.207190394402,344.206563711166
    C 974.167630970478,344.789718270302 974.931609928608,345.366797745228 975.499127268791,345.936571061611
    C 976.066644608974,346.506959915161 976.452024936676,346.96074461937 976.655960261822,347.297256112099
    C 976.655960261822,347.297256112099 976.830623567104,347.297256112099 976.830623567104,347.297256112099
    C 976.830623567104,347.297256112099 978.227584004402,343.098570048809 978.227584004402,343.098570048809
    C 978.227584004402,343.098570048809 983.335240066051,343.098570048809 983.335240066051,343.098570048809
    C 983.335240066051,343.098570048809 983.335240066051,382.208490252495 983.335240066051,382.208490252495
    C 983.335240066051,385.059230208397 982.811388552189,387.540674626827 981.763685524464,389.653358757496
    C 980.715913295746,391.765454113483 979.246015012264,393.52158164978 977.354475080967,394.921152591705
    C 975.462312340736,396.320696771145 973.185392081738,397.363684356213 970.522399485111,398.050730884075
    C 967.859406888485,398.737135112286 964.912690222263,399.080952763557 961.682180285454,399.080952763557
    C 958.946180641651,399.080952763557 956.501517176628,398.867120504379 954.3480514884,398.439482748508
    C 952.193962991238,398.011844992638 950.506358385086,397.499771595001 949.284061253071,396.90385133028
    C 949.284061253071,396.90385133028 949.284061253071,391.811030626297 949.284061253071,391.811030626297
    C 950.273081839085,392.173662304878 951.233522415161,392.478005290031 952.165313780308,392.724621593952
    C 953.096343934536,392.970622360706 954.056784510612,393.177763998508 955.046566307545,393.34663528204
    C 956.035586893559,393.51491779089 957.047167003155,393.638212561607 958.080614626408,393.715984344482
    C 959.113301038742,393.793729364872 960.2558786273,393.83261525631 961.507516980171,393.83261525631
    C 966.367641091347,393.83261525631 970.092661321163,392.821822941303 972.683338880539,390.800238311291
    C 975.273324429989,388.778626918793 976.568697810173,385.69400960207 976.568697810173,381.54759067297
    C 976.568697810173,381.54759067297 976.568697810173,376.610260009766 976.568697810173,376.610260009766
    C 976.568697810173,376.610260009766 976.437700331211,376.610260009766 976.437700331211,376.610260009766
    C 974.953408241272,378.062044560909 973.229057908058,379.156683743 971.264510929585,379.895328342915
    C 969.300033152103,380.633972942829 967.051762104034,381.003322005272 964.51976698637,381.003322005272
    C 963.355391085148,381.003322005272 962.103683531284,380.886691093445 960.765405535698,380.653429269791
    C 959.426435530186,380.420167446136 958.087396323681,380.025313735008 956.749118328094,379.467690587044
    C 955.410148322582,378.91065621376 954.129791557789,378.172011613846 952.907425224781,377.251703262329
    C 951.685058891773,376.332037210464 950.608014643192,375.178493797779 949.676915287972,373.79168856144
    C 948.745193123817,372.405498862267 947.996230781078,370.766002237797 947.428644239903,368.873787462711
    C 946.861126899719,366.982214987278 946.577402830124,364.791759073734 946.577402830124,362.303650796413
    C 946.577402830124,358.85699057579 947.101254343987,355.869547843933 948.148957371712,353.34258043766
    C 949.19672960043,350.815586268902 950.578673422337,348.722947239876 952.296242058277,347.063994288445
    Z
    M 954.828306376934,368.912673354149
    C 955.614083647728,370.753236532211 956.610647141933,372.185002744198 957.818688869476,373.208534002304
    C 959.026038587093,374.232707560062 960.343210279942,374.932493031025 961.769511938095,375.307890415192
    C 963.195121586323,375.683903336525 964.5484161973,375.871588647366 965.829464972019,375.871588647366
    C 967.92487102747,375.871588647366 969.889418005943,375.496191263199 971.722898304462,374.744165420532
    C 973.556447803974,373.992755115032 975.171737372875,372.96919709444 976.568697810173,371.672929346561
    C 976.568697810173,371.672929346561 976.568697810173,352.35121768713 976.568697810173,352.35121768713
    C 976.190099179745,351.884694039822 975.666247665882,351.353806614876 974.997074067593,350.757270812988
    C 974.327208459377,350.161377310753 973.548974096775,349.610418021679 972.661540567875,349.105035245419
    C 971.773415029049,348.599625706673 970.762526929379,348.171987950802 969.627492249012,347.822095215321
    C 968.492388367653,347.472202479839 967.255074620247,347.297256112099 965.916727423668,347.297256112099
    C 963.908583819866,347.297256112099 962.140567660332,347.653839468956 960.612609744072,348.366363883018
    C 959.084651827812,349.079503834248 957.803672254086,350.070866584778 956.770916640759,351.340425372124
    C 955.737538218498,352.610599696636 954.959234654903,354.133465409279 954.435383141041,355.908433735371
    C 953.911531627178,357.684017598629 953.649605870247,359.647286772728 953.649605870247,361.798241257668
    C 953.649605870247,364.701248347759 954.042459905148,367.072725713253 954.828306376934,368.912673354149
    Z
    M 1126.87401491404,347.297256112099
    C 1126.87401491404,347.297256112099 1127.00494319201,347.297256112099 1127.00494319201,347.297256112099
    C 1127.38284981251,346.779107630253 1127.87057840824,346.273724853992 1128.46743696928,345.781081020832
    C 1129.06360352039,345.289052724838 1129.86439740658,344.764213621616 1130.86843460798,344.206563711166
    C 1131.87254101038,343.649529337883 1133.079890728,343.163576126099 1134.49186778069,342.748704075813
    C 1135.90315282345,342.334420800209 1137.43858444691,342.12666362524 1139.09753984213,342.12666362524
    C 1141.42559963465,342.12666362524 1143.67380148172,342.476556360722 1145.84228378534,343.176341831684
    C 1148.01000487804,343.876127302647 1149.92403513193,344.990784823895 1151.58299052715,346.519725620747
    C 1153.24187672138,348.049281954765 1154.5733730197,350.012551128864 1155.5774102211,352.409533143044
    C 1156.5815166235,354.807130694389 1157.0835698247,357.71621286869 1157.0835698247,361.137341678143
    C 1157.0835698247,363.703194975853 1156.79839253426,365.977497756481 1156.22817635536,367.960196495056
    C 1155.65789097548,369.942895233631 1154.9055377841,371.672929346561 1153.97035557032,373.150218546391
    C 1153.03448134661,374.627534508705 1151.93833762407,375.865513563156 1150.68185520172,376.862951397896
    C 1149.42474997044,377.860978007317 1148.12397891283,378.664628684521 1146.77947282791,379.273287892342
    C 1145.43434393406,379.882562637329 1144.06810873747,380.322966098785 1142.6793140173,380.595113813877
    C 1141.29051929712,380.867234766483 1139.98289734125,381.003322005272 1138.75575613976,381.003322005272
    C 1136.21213525534,381.003322005272 1134.00483119488,380.633972942829 1132.13446676731,379.895328342915
    C 1130.26341032982,379.156683743 1128.58265662193,378.062044560909 1127.09227484465,376.610260009766
    C 1127.09227484465,376.610260009766 1126.96404540539,376.610260009766 1126.96404540539,376.610260009766
    C 1126.96404540539,376.610260009766 1126.96404540539,398.109046339989 1126.96404540539,398.109046339989
    C 1126.96404540539,398.109046339989 1120.32566338778,398.109046339989 1120.32566338778,398.109046339989
    C 1120.32566338778,398.109046339989 1120.32566338778,343.098570048809 1120.32566338778,343.098570048809
    C 1120.32566338778,343.098570048809 1125.43338865042,343.098570048809 1125.43338865042,343.098570048809
    C 1125.43338865042,343.098570048809 1126.87401491404,347.297256112099 1126.87401491404,347.297256112099
    Z
    M 1126.96127736568,371.672929346561
    C 1128.39512193203,372.96919709444 1130.02743494511,373.992755115032 1131.85683238506,374.744165420532
    C 1133.68629902601,375.496191263199 1135.65416765213,375.871588647366 1137.76189148426,375.871588647366
    C 1139.04979115725,375.871588647366 1140.41055947542,375.657783150673 1141.84509605169,375.230118632317
    C 1143.27887141705,374.802480876446 1144.60351681709,374.03830486536 1145.8184094429,372.936413049698
    C 1147.03254085779,371.835110008717 1148.03526324034,370.338364481926 1148.82581537962,368.446149706841
    C 1149.61574470997,366.554577231407 1150.01136678457,364.144213974476 1150.01136678457,361.215086698532
    C 1150.01136678457,359.064132213593 1149.75490790606,357.133058309555 1149.24261295795,355.422480523586
    C 1148.73031800985,353.711902737617 1147.96225619316,352.254043102264 1146.93773549795,351.048848092556
    C 1145.91321480274,349.843679845333 1144.65472555161,348.917323172092 1143.16226774454,348.269189298153
    C 1141.66904872656,347.621644198895 1139.94193035364,347.297256112099 1137.98153543472,347.297256112099
    C 1136.5764092803,347.297256112099 1135.29536050558,347.46612739563 1134.13921952248,347.802665650845
    C 1132.98300933838,348.13979268074 1131.93662112951,348.567430436611 1131.00012409687,349.085578918457
    C 1130.06355786324,349.604342937469 1129.25868111849,350.161377310753 1128.58542466164,350.757270812988
    C 1127.91216820478,351.353806614876 1127.37053203583,351.884694039822 1126.96127736568,352.35121768713
    C 1126.96127736568,352.35121768713 1126.96127736568,371.672929346561 1126.96127736568,371.672929346561
    Z
" />
</svg>
